<svg id="レイヤー_1" data-name="レイヤー 1" xmlns="http://www.w3.org/2000/svg" viewBox="0 0 600 184"><defs><style>.cls-1{fill:#fff;}</style></defs><title>isaax_str</title><path class="cls-1" d="M26.79,24.49a3.22,3.22,0,0,1-3.22,3.21H3.22A3.22,3.22,0,0,1,0,24.49V4.13A3.21,3.21,0,0,1,3.21.92H23.58a3.21,3.21,0,0,1,3.22,3.21Zm0,33.21a3.22,3.22,0,0,0-3.22-3.21H3.22A3.22,3.22,0,0,0,0,57.71V179.86a3.22,3.22,0,0,0,3.22,3.21H23.58a3.22,3.22,0,0,0,3.22-3.21S26.79,57.71,26.79,57.71Z"/><path class="cls-1" d="M89.7,85.87a54.09,54.09,0,0,1,22.82-4.59h55.71a3.22,3.22,0,0,0,3.22-3.21V57.7a3.22,3.22,0,0,0-3.22-3.21H112.52c-33.6,0-58.94,17.27-58.94,40.18v6.15a3.32,3.32,0,0,0,2,3l79.86,42.27a3.18,3.18,0,0,1-.1,5.63,54,54,0,0,1-22.82,4.59H56.79a3.21,3.21,0,0,0-3.21,3.21v20.36a3.22,3.22,0,0,0,3.21,3.21H112.5c33.6,0,58.94-17.27,58.94-40.18v-6.15a3.32,3.32,0,0,0-2-3L89.6,91.5a3.18,3.18,0,0,1,.1-5.63Z"/><path class="cls-1" d="M257.14,54.5h-55.7a3.22,3.22,0,0,0-3.21,3.21V78.07a3.22,3.22,0,0,0,3.21,3.21h55.7c19.94,0,32.14,8.67,32.14,13.4v48.22c0,4.73-12.21,13.4-32.15,13.4H228.21a3.21,3.21,0,0,1-3.2-3.21v-7.5c0-4.73,12.2-13.4,32.14-13.4h18.2a3.22,3.22,0,0,0,3.21-3.21V108.61a3.21,3.21,0,0,0-3.22-3.21h-18.2c-33.6,0-58.93,17.28-58.93,40.18v34.29a3.22,3.22,0,0,0,3.22,3.22h55.7c33.6,0,58.93-17.28,58.93-40.18V94.68C316.07,71.77,290.74,54.5,257.14,54.5Z"/><path class="cls-1" d="M399.63,54.5h-55.7a3.22,3.22,0,0,0-3.22,3.21V78.07a3.22,3.22,0,0,0,3.21,3.21h55.7c19.94,0,32.14,8.67,32.14,13.4v48.22c0,4.73-12.21,13.4-32.14,13.4H370.7a3.21,3.21,0,0,1-3.19-3.21v-7.5c0-4.73,12.2-13.4,32.14-13.4h18.2a3.22,3.22,0,0,0,3.21-3.21V108.61a3.21,3.21,0,0,0-3.21-3.21h-18.2c-33.6,0-58.93,17.28-58.93,40.18v34.29a3.22,3.22,0,0,0,3.21,3.22h55.7c33.6,0,58.93-17.28,58.93-40.18V94.68C458.57,71.77,433.23,54.5,399.63,54.5Z"/><path class="cls-1" d="M600,179.85a3.27,3.27,0,0,1-3.22,3.22H576.36a3.21,3.21,0,0,1-3.2-3v0c-.69-14.36-5.93-24.34-10.28-27.75l-9.78-7.4a3.19,3.19,0,0,1,0-5l17.15-13a3.16,3.16,0,0,1,3.8.26l5.11,3.84c12,9.26,20.12,27.18,20.84,48.9ZM482.14,57.72c.72,21.72,8.81,39.64,20.84,48.9l5.11,3.84a3.16,3.16,0,0,0,3.8.26l17.15-13a3.19,3.19,0,0,0,0-5l-9.77-7.4c-4.35-3.41-9.59-13.39-10.28-27.75v0a3.21,3.21,0,0,0-3.2-3H485.35a3.27,3.27,0,0,0-3.21,3.22ZM596.78,54.5H576.41a3.21,3.21,0,0,0-3.22,3.22h0c-.65,13.84-5.51,23.48-9.75,27.23l-60.54,46c-12,9.26-20,27.18-20.77,48.9v.06a3.22,3.22,0,0,0,3.22,3.22h20.38a3.21,3.21,0,0,0,3.22-3.22h0c.68-14.39,5.89-24.25,10.25-27.67l60-45.51c12-9.26,20-27.18,20.77-48.9v-.06A3.22,3.22,0,0,0,596.78,54.5Z"/></svg>