<svg xmlns="http://www.w3.org/2000/svg" viewBox="0 0 480 145.72"><defs><style>.cls-1{fill:#fff;}</style></defs><title>logo_str</title><g id="レイヤー_2" data-name="レイヤー 2"><g id="レイヤー_1-2" data-name="レイヤー 1"><path class="cls-1" d="M21.43,18.86a2.57,2.57,0,0,1-2.57,2.57H2.57A2.57,2.57,0,0,1,0,18.86V2.57A2.57,2.57,0,0,1,2.57,0H18.86a2.57,2.57,0,0,1,2.57,2.57Zm0,26.57a2.57,2.57,0,0,0-2.57-2.57H2.57A2.57,2.57,0,0,0,0,45.43v97.72a2.57,2.57,0,0,0,2.57,2.57H18.86a2.57,2.57,0,0,0,2.57-2.57ZM71.76,68A43.26,43.26,0,0,1,90,64.29h44.57a2.57,2.57,0,0,0,2.57-2.57V45.43a2.57,2.57,0,0,0-2.57-2.57H90C63.13,42.86,42.86,56.68,42.86,75v4.92a2.65,2.65,0,0,0,1.59,2.37l63.89,33.82a2.54,2.54,0,0,1-.08,4.5A43.27,43.27,0,0,1,90,124.29H45.43a2.57,2.57,0,0,0-2.57,2.57v16.29a2.57,2.57,0,0,0,2.57,2.57H90c26.88,0,47.15-13.82,47.15-32.14v-4.92a2.65,2.65,0,0,0-1.59-2.37L71.68,72.46a2.54,2.54,0,0,1,.08-4.5Zm134-25.1H161.15a2.57,2.57,0,0,0-2.57,2.57V61.72a2.57,2.57,0,0,0,2.57,2.57h44.56c16,0,25.72,6.94,25.72,10.71v38.57c0,3.78-9.76,10.72-25.72,10.72H182.57a2.57,2.57,0,0,1-2.56-2.57v-6c0-3.78,9.76-10.72,25.72-10.72h14.56a2.57,2.57,0,0,0,2.57-2.57V86.15a2.57,2.57,0,0,0-2.57-2.57H205.73c-26.88,0-47.15,13.82-47.15,32.15v27.43a2.57,2.57,0,0,0,2.57,2.57h44.56c26.88,0,47.15-13.82,47.15-32.15V75C252.86,56.68,232.59,42.86,205.71,42.86Zm114,0H275.15a2.57,2.57,0,0,0-2.57,2.57V61.72a2.57,2.57,0,0,0,2.57,2.57h44.56c16,0,25.72,6.94,25.72,10.71v38.57c0,3.78-9.76,10.72-25.72,10.72H296.56a2.57,2.57,0,0,1-2.55-2.57v-6c0-3.78,9.76-10.72,25.72-10.72h14.56a2.57,2.57,0,0,0,2.57-2.57V86.15a2.57,2.57,0,0,0-2.57-2.57H319.72c-26.88,0-47.15,13.82-47.15,32.15v27.43a2.57,2.57,0,0,0,2.57,2.57h44.56c26.88,0,47.14-13.82,47.14-32.15V75C366.85,56.68,346.58,42.86,319.71,42.86ZM480,143.15a2.61,2.61,0,0,1-2.57,2.58H461.09a2.57,2.57,0,0,1-2.56-2.43v0c-.55-11.48-4.74-19.47-8.22-22.2l-7.82-5.92a2.56,2.56,0,0,1,0-4l13.72-10.42a2.54,2.54,0,0,1,3,.2l4.09,3.08c9.62,7.41,16.09,21.74,16.67,39.12ZM385.71,45.44c.58,17.38,7,31.72,16.67,39.12l4.09,3.07a2.53,2.53,0,0,0,3,.2l13.72-10.42a2.56,2.56,0,0,0,0-4l-7.82-5.92c-3.48-2.73-7.67-10.71-8.22-22.2v0a2.57,2.57,0,0,0-2.56-2.43H388.28a2.61,2.61,0,0,0-2.57,2.58Zm91.72-2.58h-16.3a2.57,2.57,0,0,0-2.57,2.57h0c-.52,11.07-4.41,18.78-7.8,21.79L402.32,104c-9.62,7.41-16,21.75-16.61,39.12v.05a2.57,2.57,0,0,0,2.57,2.57h16.3a2.57,2.57,0,0,0,2.57-2.58h0c.54-11.51,4.72-19.4,8.2-22.13l48-36.41c9.62-7.41,16-21.74,16.61-39.12v0A2.57,2.57,0,0,0,477.43,42.86Z"/></g></g></svg>