<svg xmlns="http://www.w3.org/2000/svg" viewBox="0 0 471.02 503.93"><title>sec_1_1</title><g id="レイヤー_2" data-name="レイヤー 2"><g id="レイヤー_1-2" data-name="レイヤー 1"><path d="M40,256.94v14c0,8.36-8.8,15-20,15H1a1,1,0,0,1-1-1V274.36c0-8.36,8.8-15,20.06-15h5.46a1,1,0,0,1,1.06,1v7a1,1,0,0,1-1.06,1H20.06c-6.34,0-11.09,3.17-11.09,6v1.5A1.07,1.07,0,0,0,10,276.91h10c6.25,0,11-3.17,11-6v-14c0-2.9-4.75-6.07-11-6.07H1a1,1,0,0,1-1-1v-7a1,1,0,0,1,1-1h19.1C31.24,241.89,40,248.49,40,256.94Z"/><path d="M92.38,256.85v14.08c0,8.36-8.8,15-20.06,15h-19a1,1,0,0,1-1-1v-60a1.06,1.06,0,0,1,1-1.06h7a1.06,1.06,0,0,1,1,1.06v51a1,1,0,0,0,1.06,1.06h9.94c6.34,0,11-3.17,11-6V256.85c0-2.82-4.66-6-11-6H66.87a1.06,1.06,0,0,1-1.06-1v-7a1.06,1.06,0,0,1,1.06-1h5.46C83.58,241.89,92.38,248.49,92.38,256.85Z"/><path d="M144.73,242.86v7a1.06,1.06,0,0,1-1.06,1h-19c-6.25,0-11,3.17-11,6v14.08c0,2.82,4.75,6,11,6h19a1.06,1.06,0,0,1,1.06,1v7a1.06,1.06,0,0,1-1.06,1h-19c-11.18,0-20-6.6-20-15V256.85c0-8.36,8.8-15,20-15h19A1.06,1.06,0,0,1,144.73,242.86Z"/><path d="M177,241.89h5.54a1,1,0,0,1,1,1v7a1,1,0,0,1-1,1H177c-6.25,0-11,3.17-11,6v14.08c0,2.82,4.75,6,11,6h10a1,1,0,0,0,1-1.06v-51a1.07,1.07,0,0,1,1.06-1.06h7a1.14,1.14,0,0,1,1.06,1.06v60a1.06,1.06,0,0,1-1.06,1H177c-11.18,0-20-6.6-20-15V256.85C157,248.49,165.84,241.89,177,241.89Z"/><path d="M209.38,270.93V256.85c0-8.36,8.8-15,20-15h19a1.06,1.06,0,0,1,1.06,1v10.56c0,8.36-8.8,15-20.06,15H223.9a1,1,0,0,1-1.06-1v-7a1,1,0,0,1,1.06-1h5.46c6.34,0,11-3.17,11-6v-1.5a1,1,0,0,0-1-1.06h-10c-6.25,0-11,3.17-11,6v14.08c0,2.82,4.75,6,11,6h19a1.06,1.06,0,0,1,1.06,1v7a1.06,1.06,0,0,1-1.06,1h-19C218.18,285.89,209.38,279.29,209.38,270.93Z"/><path d="M261.73,249.9v-7a1,1,0,0,1,1-1h9.06a1,1,0,0,0,1-1v-2c0-8.45,8.8-15,20-15h8a1.14,1.14,0,0,1,1.06,1.06v7a1.07,1.07,0,0,1-1.06,1.06h-8c-6.25,0-11,3.17-11,6v2a1,1,0,0,0,1.06,1h18a1.06,1.06,0,0,1,1.06,1v7a1.06,1.06,0,0,1-1.06,1h-18a1,1,0,0,0-1.06,1.06v33a1,1,0,0,1-1,1h-7a1,1,0,0,1-1-1v-33a1,1,0,0,0-1-1.06H262.7A1,1,0,0,1,261.73,249.9Z"/><path d="M354.11,242.86v46c0,8.45-8.8,15-20.06,15H315a1.06,1.06,0,0,1-1-1.06v-7a1,1,0,0,1,1-1.06h19c6.33,0,11-3.17,11-6v-37a1,1,0,0,0-1-1.06H334c-6.25,0-11,3.17-11,6v14.08c0,2.82,4.75,6,11,6h5.54a1,1,0,0,1,1,1v7a1,1,0,0,1-1,1H334c-11.18,0-20-6.6-20-15V256.85c0-8.36,8.8-15,20-15h19A1.06,1.06,0,0,1,354.11,242.86Z"/><path d="M406.46,256.85v28.07a1.06,1.06,0,0,1-1.06,1h-7a1,1,0,0,1-1.06-1V256.85c0-2.82-4.66-6-11-6h-9.94a1,1,0,0,0-1.06,1.06v33a1,1,0,0,1-1,1h-7a1,1,0,0,1-1-1v-60a1.06,1.06,0,0,1,1-1.06h7a1.06,1.06,0,0,1,1,1.06v16a1,1,0,0,0,1.06,1h9.94C397.66,241.89,406.46,248.49,406.46,256.85Z"/><path d="M432.23,224.82v7a1,1,0,0,1-1,1h-7a1,1,0,0,1-1-1v-7a1,1,0,0,1,1-1h7A1,1,0,0,1,432.23,224.82Zm0,18v42.06a1,1,0,0,1-1,1h-7a1,1,0,0,1-1-1V242.86a1,1,0,0,1,1-1h7A1,1,0,0,1,432.23,242.86Z"/><path d="M440,296.27a1.06,1.06,0,0,1,1.05-1H451c6.25,0,11-3.17,11-6v-46a1,1,0,0,1,1.06-1.06H470A1,1,0,0,1,471,243.3v46c0,8.45-8.71,15-20,15H441.1a1,1,0,0,1-1.05-1Zm31-70.93v7a1,1,0,0,1-1.06,1H463.1a1,1,0,0,1-1.06-1v-7a1,1,0,0,1,1.06-1.06H470A1,1,0,0,1,471,225.35Z"/><path d="M34.67,363.8a.32.32,0,0,0,.09.26,13.1,13.1,0,0,1,5.37,10.3v10.56a1.06,1.06,0,0,1-1.06,1H32a1,1,0,0,1-1-1V374.36c0-2.82-4.75-6-11-6H10a1,1,0,0,0-1,1v15.58a1.06,1.06,0,0,1-1.06,1H1a1,1,0,0,1-1-1V324.73a1,1,0,0,1,1-1H8a1,1,0,0,1,1,1l.09,33.62a1,1,0,0,0,1,1h10c6.25,0,11-3.17,11-6V342.77a1,1,0,0,1,1-1h7a1.06,1.06,0,0,1,1.06,1v10.56a13.1,13.1,0,0,1-5.37,10.29C34.67,363.71,34.67,363.71,34.67,363.8Z"/><path d="M84.32,377.88v7a1,1,0,0,1-1,1h-10c-11.18,0-20-6.6-20-15v-46a1,1,0,0,1,1-1h7a1,1,0,0,1,1,1v46c0,2.82,4.75,6,11,6h10A1,1,0,0,1,84.32,377.88Z"/><path d="M151.57,356.85v28.07a1,1,0,0,1-1.06,1h-7a1,1,0,0,1-1.06-1V356.85c0-2.82-4.66-6-11-6H107.57a1,1,0,0,0-1.06,1.06v33a1,1,0,0,1-1,1h-7a1,1,0,0,1-1-1V342.86a1,1,0,0,1,1-1h33C142.77,341.89,151.57,348.49,151.57,356.85ZM129,356.41v28.51a1,1,0,0,1-1,1h-7a1,1,0,0,1-1-1V356.41a1,1,0,0,1,1-1.06h7A1,1,0,0,1,129,356.41Z"/><path d="M173.76,384.92a1,1,0,0,1-1,1h-7a1,1,0,0,1-1-1V342.86a1,1,0,0,1,1-1h19c11.26,0,20.06,6.6,20.06,15v28.07a1.06,1.06,0,0,1-1.06,1h-7a1,1,0,0,1-1.06-1V356.85c0-2.82-4.66-6-11-6h-9.94a1,1,0,0,0-1.06,1.06Z"/><path d="M258.08,356.41v15c0,8.45-8.8,15-20,15H238c-11.18,0-20-6.6-20-15v-15c0-8.45,8.8-15,20-15h.09C249.28,341.36,258.08,348,258.08,356.41Zm-9,15v-15c0-2.82-4.75-6.07-11-6.07H238c-6.25,0-11,3.26-11,6.07v15c0,2.9,4.75,6.07,11,6.07h.09C244.36,377.44,249.11,374.27,249.11,371.37Z"/><path d="M291.37,385.89h-5.54a1,1,0,0,1-1-1v-7a1,1,0,0,1,1-1h5.54c6.25,0,11-3.17,11-6V356.85c0-2.82-4.75-6-11-6h-10a1,1,0,0,0-1.06,1.06v51a1,1,0,0,1-1,1h-7a1,1,0,0,1-1-1v-60.1a1,1,0,0,1,1-1h19.1c11.18,0,20,6.6,20,15v14.08C311.34,379.29,302.54,385.89,291.37,385.89Z"/><path d="M324.56,370.93V356.85c0-8.36,8.8-15,20.06-15h19a1,1,0,0,1,1,1V403a1,1,0,0,1-1,1h-7a1,1,0,0,1-1-1v-51a1,1,0,0,0-1.06-1.06h-9.94c-6.34,0-11.09,3.17-11.09,6v14.08c0,2.82,4.75,6,11.09,6h5.46a1,1,0,0,1,1,1v7a1,1,0,0,1-1,1h-5.46C333.36,385.89,324.56,379.29,324.56,370.93Z"/><path d="M386.79,356.94v28a1,1,0,0,1-1,1h-7a1,1,0,0,1-1-1v-28c0-8.45,8.8-15,20-15h19a1.06,1.06,0,0,1,1,1.06v7a1,1,0,0,1-1,1.06h-19C391.54,351,386.79,354.12,386.79,356.94Z"/><path d="M471,370.93c0,8.36-8.8,15-20.06,15H432a1,1,0,0,1-1-1v-7a1,1,0,0,1,1-1h19A15.47,15.47,0,0,0,458.7,375c.44-.35.62-.62.62-1a1.17,1.17,0,0,0-.53-.88l-27.1-14.34a1.24,1.24,0,0,1-.7-1.06v-.88c0-8.36,8.8-15,20-15h19a1.06,1.06,0,0,1,1.06,1v7a1.06,1.06,0,0,1-1.06,1H451a16.08,16.08,0,0,0-7.83,1.94,1,1,0,0,0,.09,1.76l27.1,14.34A1.45,1.45,0,0,1,471,370Z"/><path d="M20,451.92v19c0,2.82,4.75,6,11,6h8a1,1,0,0,1,1,1v7a1,1,0,0,1-1,1H31c-11.18,0-20-6.6-20-15v-19a1.06,1.06,0,0,0-1-1.06H1a1,1,0,0,1-1-1v-7a1,1,0,0,1,1-1.06H10a1,1,0,0,0,1-1v-16a1,1,0,0,1,1-1h7a1,1,0,0,1,1,1v16a1,1,0,0,0,1.06,1H39a1,1,0,0,1,1,1.06v7a1,1,0,0,1-1,1H21A1.07,1.07,0,0,0,20,451.92Z"/><path d="M54.22,442.94a1.06,1.06,0,0,1,1-1.06h7a1.06,1.06,0,0,1,1,1.06v28c0,2.82,4.75,6,11,6h10a1,1,0,0,0,1-1.06V442.94a1.06,1.06,0,0,1,1-1.06h7a1.06,1.06,0,0,1,1,1.06v42a1,1,0,0,1-1,1h-19c-11.18,0-20-6.6-20-15Z"/><path d="M152.71,442.86a1.11,1.11,0,0,1-.09.53l-19.54,41.89a.87.87,0,0,1-.88.62h-7.74a1.06,1.06,0,0,1-.88-.62L104,443.38c0-.18-.09-.35-.09-.53a1,1,0,0,1,1-1h7.74a1.08,1.08,0,0,1,1,.62l13.82,29.74a1.06,1.06,0,0,0,.88.62.88.88,0,0,0,.88-.62l13.9-29.74a1,1,0,0,1,.88-.62h7.74A1,1,0,0,1,152.71,442.86Z"/><path d="M162.49,470.93V442.86a1,1,0,0,1,1-1h7a1,1,0,0,1,1,1v28.07c0,2.82,4.75,6,11,6h24a1,1,0,0,0,1-1.06v-33a1,1,0,0,1,1.06-1h7a1,1,0,0,1,1.06,1v42.06a1,1,0,0,1-1.06,1h-33C171.29,485.89,162.49,479.29,162.49,470.93Zm22.53.44V442.86a1,1,0,0,1,1-1h7a1,1,0,0,1,1,1v28.51a1,1,0,0,1-1,1.06h-7A1,1,0,0,1,185,471.37Z"/><path d="M270.75,442.94c0,7.39-2.9,13.73-7.22,17.16l-19.71,14.52c-2.11,1.5-4,5.46-4,10.3a1,1,0,0,1-1,1h-7a1,1,0,0,1-1-1c0-7.48,2.9-13.82,7.3-17.25l19.62-14.43c2.2-1.58,4-5.46,4-10.29a1.06,1.06,0,0,1,1-1.06h7A1.06,1.06,0,0,1,270.75,442.94ZM238.1,460.1c-4.4-3.43-7.3-9.77-7.3-17.16a1.06,1.06,0,0,1,1-1.06h7a1.06,1.06,0,0,1,1,1.06c0,4.84,1.94,8.71,4,10.29l2.46,1.85a.92.92,0,0,1,.44.79,1.05,1.05,0,0,1-.44.79l-5.9,4.31a1.25,1.25,0,0,1-.53.18,1.27,1.27,0,0,1-.62-.18Zm25.43,7.57c4.31,3.43,7.22,9.77,7.22,17.25a1,1,0,0,1-1,1h-7a1,1,0,0,1-1-1c0-4.84-1.85-8.8-4-10.3l-2.46-1.85a.93.93,0,0,1,0-1.58l5.9-4.4a1.28,1.28,0,0,1,.62-.18.76.76,0,0,1,.53.26Z"/><path d="M325.06,488.88c0,8.45-8.8,15-20,15H286a1,1,0,0,1-1-1v-7a1,1,0,0,1,1-1h19.1c6.25,0,11-3.17,11-6.07v-1.94a1,1,0,0,0-1.06-1.06H305c-11.18,0-20-6.6-20-15V442.86a1,1,0,0,1,1-1h7a1,1,0,0,1,1,1v28.07c0,2.82,4.75,6,11,6h10a1,1,0,0,0,1.06-1.06v-33a1,1,0,0,1,1-1h7a1,1,0,0,1,1,1Z"/><path d="M379.37,477.88v7a1.06,1.06,0,0,1-1.06,1h-38a1,1,0,0,1-1-1c0-7.48,2.9-13.82,7.3-17.25l19.62-14.52a4.88,4.88,0,0,0,.79-.62,1.32,1.32,0,0,0,.26-.62,1,1,0,0,0-1.06-1.06h-26a1,1,0,0,1-1-1v-7a1,1,0,0,1,1-1h38a1.06,1.06,0,0,1,1.06,1c0,7.48-2.9,13.82-7.3,17.25l-19.71,14.52a4.36,4.36,0,0,0-.7.62.8.8,0,0,0-.26.62,1,1,0,0,0,1,1.06h26A1.06,1.06,0,0,1,379.37,477.88Z"/><path d="M424.53,460.37v7a1,1,0,0,1-1,1h-29a1,1,0,0,1-1-1v-7a1,1,0,0,1,1-1h29A1,1,0,0,1,424.53,460.37Z"/><path d="M447.78,477.88v8c0,5.54-3.34,9.94-7.48,9.94a1,1,0,0,1-1-1v-2.55a1,1,0,0,1,1-1c1.32,0,2.73-1.85,2.9-4.58.09-.53-.35-.88-.88-.88h-2.55a1,1,0,0,1-1-1v-7a1,1,0,0,1,1-1h7A1,1,0,0,1,447.78,477.88Z"/><path d="M471,477.88v7a1,1,0,0,1-1,1h-7a1,1,0,0,1-1-1v-7a1,1,0,0,1,1-1h7A1,1,0,0,1,471,477.88Z"/><path d="M213.91,98.27a12.52,12.52,0,1,1-12.52-12.52A12.52,12.52,0,0,1,213.91,98.27Zm64.7-12.52a12.52,12.52,0,1,0,12.52,12.52A12.52,12.52,0,0,0,278.61,85.75ZM155.92,54.28a1.46,1.46,0,0,0-1.07-.47,1.5,1.5,0,0,0-.39.05A47.08,47.08,0,0,0,120,99.13a46.57,46.57,0,0,0,8.29,26.64,1.46,1.46,0,0,0,1.2.63h.19a1.46,1.46,0,0,0,1.19-.95l25.35-69.66A1.46,1.46,0,0,0,155.92,54.28Zm96.6,44a26.12,26.12,0,0,1,26.09-26.09l1.17,0h.07a1.46,1.46,0,0,0,1.37-1l2.93-8a1.42,1.42,0,0,0,.08-.33A18.78,18.78,0,0,0,266.1,39.18a18.66,18.66,0,0,0-6,1h0a1.25,1.25,0,0,1-1.65-1.05l0-.07a44,44,0,0,0-15.61-29,1.46,1.46,0,0,0-2.31.62L216.75,75.9a1.46,1.46,0,0,0,.48,1.66,26.08,26.08,0,0,1-15.85,46.8l-1.17,0h-.07a1.46,1.46,0,0,0-1.37,1l-6.86,18.84a1.46,1.46,0,0,0,1.37,2H253a1.46,1.46,0,0,0,1.37-1l8.91-24.48a1.46,1.46,0,0,0-.49-1.66A26.26,26.26,0,0,1,252.52,98.27Zm-77.22,0a26.12,26.12,0,0,1,26.09-26.09l1.17,0h.07a1.46,1.46,0,0,0,1.37-1L228.56,3.79a1.46,1.46,0,0,0-.95-1.9A43.84,43.84,0,0,0,171,43.83a46.67,46.67,0,0,0,.72,8,2.53,2.53,0,0,1,0,1L141.1,137a1.46,1.46,0,0,0,.59,1.73A46.78,46.78,0,0,0,167,146.09h8.79a1.46,1.46,0,0,0,1.37-1L186,120.65a1.47,1.47,0,0,0-.49-1.66A26.26,26.26,0,0,1,175.3,98.27Zm175-24a1.46,1.46,0,0,0-1.14-.55l-.24,0a1.46,1.46,0,0,0-1.14.94l-25,68.6a1.46,1.46,0,0,0,1.37,2,1.43,1.43,0,0,0,.29,0,44.24,44.24,0,0,0,25.82-70.94ZM336.41,62.71a44.2,44.2,0,0,0-36.28-2.27,1.46,1.46,0,0,0-.86.87L294,75.9a1.46,1.46,0,0,0,.48,1.66,26.08,26.08,0,0,1-15.84,46.8l-1.17,0h-.07a1.46,1.46,0,0,0-1.37,1l-6.86,18.84a1.46,1.46,0,0,0,1.37,2h35.88a1.46,1.46,0,0,0,1.37-1L337.1,64.51A1.46,1.46,0,0,0,336.41,62.71Z"/></g></g></svg>