<svg xmlns="http://www.w3.org/2000/svg" viewBox="0 0 480 512.09"><defs><style>.cls-1{font-size:88px;font-family:isaax-Regular, isaax;}.cls-2{letter-spacing:0.04em;}.cls-3{letter-spacing:0.05em;}.cls-4{letter-spacing:0em;}.cls-5{letter-spacing:0.06em;}</style></defs><title>sec_1</title><g id="レイヤー_2" data-name="レイヤー 2"><g id="レイヤー_1-2" data-name="レイヤー 1"><text class="cls-1" transform="translate(0 285.89)"><tspan class="cls-2">abcdefghi</tspan><tspan x="449.02" y="0">j</tspan><tspan class="cls-3"><tspan x="0" y="100">klmnopqr</tspan><tspan class="cls-4" x="430.98" y="100">s</tspan></tspan><tspan class="cls-5"><tspan x="0" y="200">tuvwxyz-,</tspan><tspan class="cls-4" x="462.05" y="200">.</tspan></tspan></text><path d="M213.91,98.27a12.52,12.52,0,1,1-12.52-12.52A12.52,12.52,0,0,1,213.91,98.27Zm64.7-12.52a12.52,12.52,0,1,0,12.52,12.52A12.52,12.52,0,0,0,278.61,85.75ZM155.92,54.28a1.46,1.46,0,0,0-1.07-.47,1.5,1.5,0,0,0-.39.05A47.08,47.08,0,0,0,120,99.13a46.57,46.57,0,0,0,8.29,26.64,1.46,1.46,0,0,0,1.2.63h.19a1.46,1.46,0,0,0,1.19-.95l25.35-69.66A1.46,1.46,0,0,0,155.92,54.28Zm96.6,44a26.12,26.12,0,0,1,26.09-26.09l1.17,0h.07a1.46,1.46,0,0,0,1.37-1l2.93-8a1.42,1.42,0,0,0,.08-.33A18.78,18.78,0,0,0,266.1,39.18a18.66,18.66,0,0,0-6,1h0a1.25,1.25,0,0,1-1.65-1.05l0-.07a44,44,0,0,0-15.61-29,1.46,1.46,0,0,0-2.31.62L216.75,75.9a1.46,1.46,0,0,0,.48,1.66,26.08,26.08,0,0,1-15.85,46.8l-1.17,0h-.07a1.46,1.46,0,0,0-1.37,1l-6.86,18.84a1.46,1.46,0,0,0,1.37,2H253a1.46,1.46,0,0,0,1.37-1l8.91-24.48a1.46,1.46,0,0,0-.49-1.66A26.26,26.26,0,0,1,252.52,98.27Zm-77.22,0a26.12,26.12,0,0,1,26.09-26.09l1.17,0h.07a1.46,1.46,0,0,0,1.37-1L228.56,3.79a1.46,1.46,0,0,0-.95-1.9A43.84,43.84,0,0,0,171,43.83a46.67,46.67,0,0,0,.72,8,2.53,2.53,0,0,1,0,1L141.1,137a1.46,1.46,0,0,0,.59,1.73A46.78,46.78,0,0,0,167,146.09h8.79a1.46,1.46,0,0,0,1.37-1L186,120.65a1.47,1.47,0,0,0-.49-1.66A26.26,26.26,0,0,1,175.3,98.27Zm175-24a1.46,1.46,0,0,0-1.14-.55l-.24,0a1.46,1.46,0,0,0-1.14.94l-25,68.6a1.46,1.46,0,0,0,1.37,2,1.43,1.43,0,0,0,.29,0,44.24,44.24,0,0,0,25.82-70.94ZM336.41,62.71a44.2,44.2,0,0,0-36.28-2.27,1.46,1.46,0,0,0-.86.87L294,75.9a1.46,1.46,0,0,0,.48,1.66,26.08,26.08,0,0,1-15.84,46.8l-1.17,0h-.07a1.46,1.46,0,0,0-1.37,1l-6.86,18.84a1.46,1.46,0,0,0,1.37,2h35.88a1.46,1.46,0,0,0,1.37-1L337.1,64.51A1.46,1.46,0,0,0,336.41,62.71Z"/></g></g></svg>