<svg xmlns="http://www.w3.org/2000/svg" viewBox="0 0 471.02 262.04"><defs><style>.cls-1{fill:#fff;}</style></defs><title>sec_4</title><g id="レイヤー_2" data-name="レイヤー 2"><g id="レイヤー_1-2" data-name="レイヤー 1"><path class="cls-1" d="M54,33V61.07A1,1,0,0,1,53,62H46a1,1,0,0,1-1.06-1V33c0-2.82-4.66-6-11-6H10A1,1,0,0,0,9,28.07v33a1,1,0,0,1-1,1H1a1,1,0,0,1-1-1V19a1,1,0,0,1,1-1H34C45.23,18,54,24.64,54,33ZM31.5,32.56V61.07a1,1,0,0,1-1,1h-7a1,1,0,0,1-1-1V32.56a1,1,0,0,1,1-1.06h7A1,1,0,0,1,31.5,32.56Z"/><path class="cls-1" d="M127.21,33.09v14c0,8.36-8.8,15-20,15H88.14a1,1,0,0,1-1-1V50.51c0-8.36,8.8-15,20.06-15h5.46a1,1,0,0,1,1.06,1v7a1,1,0,0,1-1.06,1h-5.46c-6.34,0-11.09,3.17-11.09,6V52a1.07,1.07,0,0,0,1.06,1.06h10c6.25,0,11-3.17,11-6v-14c0-2.9-4.75-6.07-11-6.07H88.14a1,1,0,0,1-1-1V19a1,1,0,0,1,1-1h19.1C118.41,18,127.21,24.64,127.21,33.09Z"/><path class="cls-1" d="M200.39,19v7a1.06,1.06,0,0,1-1.06,1h-19c-6.25,0-11,3.17-11,6V47.08c0,2.82,4.75,6,11,6h19a1.06,1.06,0,0,1,1.06,1v7a1.06,1.06,0,0,1-1.06,1h-19c-11.18,0-20-6.6-20-15V33c0-8.36,8.8-15,20-15h19A1.06,1.06,0,0,1,200.39,19Z"/><path class="cls-1" d="M273.57,33V61.07a1.06,1.06,0,0,1-1.06,1h-7a1,1,0,0,1-1.06-1V33c0-2.82-4.66-6-11-6h-9.94a1,1,0,0,0-1.06,1.06v33a1,1,0,0,1-1,1h-7a1,1,0,0,1-1-1v-60a1.06,1.06,0,0,1,1-1.06h7a1.06,1.06,0,0,1,1,1.06v16a1,1,0,0,0,1.06,1h9.94C264.77,18,273.57,24.64,273.57,33Z"/><path class="cls-1" d="M320.17,1V8a1,1,0,0,1-1,1h-7a1,1,0,0,1-1-1V1a1,1,0,0,1,1-1h7A1,1,0,0,1,320.17,1Zm0,18V61.07a1,1,0,0,1-1,1h-7a1,1,0,0,1-1-1V19a1,1,0,0,1,1-1h7A1,1,0,0,1,320.17,19Z"/><path class="cls-1" d="M366.78,61.07a1,1,0,0,1-1,1h-7a1,1,0,0,1-1-1V19a1,1,0,0,1,1-1h19c11.26,0,20.06,6.6,20.06,15V61.07a1.06,1.06,0,0,1-1.06,1h-7a1,1,0,0,1-1.06-1V33c0-2.82-4.66-6-11-6h-9.94a1,1,0,0,0-1.06,1.06Z"/><path class="cls-1" d="M431,47.08V33c0-8.36,8.8-15,20-15h19A1.06,1.06,0,0,1,471,19V29.57c0,8.36-8.8,15-20.06,15H445.5a1,1,0,0,1-1.06-1v-7a1,1,0,0,1,1.06-1H451c6.34,0,11-3.17,11-6v-1.5A1,1,0,0,0,461,27H451c-6.25,0-11,3.17-11,6V47.08c0,2.82,4.75,6,11,6h19A1.06,1.06,0,0,1,471,54v7A1.06,1.06,0,0,1,470,62H451C439.78,62,431,55.44,431,47.08Z"/><path class="cls-1" d="M30.89,136.52v7a1,1,0,0,1-1,1H1a1,1,0,0,1-1-1v-7a1,1,0,0,1,1-1h29A1,1,0,0,1,30.89,136.52Z"/><path class="cls-1" d="M160.62,128.07v19c0,2.82,4.75,6,11,6h8a1,1,0,0,1,1,1v7a1,1,0,0,1-1,1h-8c-11.18,0-20-6.6-20-15v-19a1.06,1.06,0,0,0-1-1.06h-9.06a1,1,0,0,1-1-1v-7a1,1,0,0,1,1-1.06h9.06a1,1,0,0,0,1-1v-16a1,1,0,0,1,1-1h7a1,1,0,0,1,1,1v16a1,1,0,0,0,1.06,1h18a1,1,0,0,1,1,1.06v7a1,1,0,0,1-1,1h-18A1.07,1.07,0,0,0,160.62,128.07Z"/><path class="cls-1" d="M330.38,132.56v15c0,8.45-8.8,15-20,15h-.09c-11.18,0-20-6.6-20-15v-15c0-8.45,8.8-15,20-15h.09C321.58,117.51,330.38,124.11,330.38,132.56Zm-9,15v-15c0-2.82-4.75-6.07-11-6.07h-.09c-6.25,0-11,3.26-11,6.07v15c0,2.9,4.75,6.07,11,6.07h.09C316.66,153.59,321.41,150.42,321.41,147.52Z"/><path class="cls-1" d="M471,136.52v7a1,1,0,0,1-1,1h-29a1,1,0,0,1-1-1v-7a1,1,0,0,1,1-1h29A1,1,0,0,1,471,136.52Z"/><path class="cls-1" d="M54,233v28.07A1,1,0,0,1,53,262H46a1,1,0,0,1-1.06-1V233c0-2.82-4.66-6-11-6H10A1,1,0,0,0,9,228.07v33a1,1,0,0,1-1,1H1a1,1,0,0,1-1-1V219a1,1,0,0,1,1-1H34C45.23,218,54,224.64,54,233Zm-22.53-.44v28.51a1,1,0,0,1-1,1h-7a1,1,0,0,1-1-1V232.56a1,1,0,0,1,1-1.06h7A1,1,0,0,1,31.5,232.56Z"/><path class="cls-1" d="M127.21,233.09v14c0,8.36-8.8,15-20,15H88.14a1,1,0,0,1-1-1V250.51c0-8.36,8.8-15,20.06-15h5.46a1,1,0,0,1,1.06,1v7a1,1,0,0,1-1.06,1h-5.46c-6.34,0-11.09,3.17-11.09,6V252a1.07,1.07,0,0,0,1.06,1.06h10c6.25,0,11-3.17,11-6v-14c0-2.9-4.75-6.07-11-6.07H88.14a1,1,0,0,1-1-1v-7a1,1,0,0,1,1-1h19.1C118.41,218,127.21,224.64,127.21,233.09Z"/><path class="cls-1" d="M200.39,219v7a1.06,1.06,0,0,1-1.06,1h-19c-6.25,0-11,3.17-11,6v14.08c0,2.82,4.75,6,11,6h19a1.06,1.06,0,0,1,1.06,1v7a1.06,1.06,0,0,1-1.06,1h-19c-11.18,0-20-6.6-20-15V233c0-8.36,8.8-15,20-15h19A1.06,1.06,0,0,1,200.39,219Z"/><path class="cls-1" d="M273.57,233v28.07a1.06,1.06,0,0,1-1.06,1h-7a1,1,0,0,1-1.06-1V233c0-2.82-4.66-6-11-6h-9.94a1,1,0,0,0-1.06,1.06v33a1,1,0,0,1-1,1h-7a1,1,0,0,1-1-1v-60a1.06,1.06,0,0,1,1-1.06h7a1.06,1.06,0,0,1,1,1.06v16a1,1,0,0,0,1.06,1h9.94C264.77,218,273.57,224.64,273.57,233Z"/><path class="cls-1" d="M320.17,201v7a1,1,0,0,1-1,1h-7a1,1,0,0,1-1-1v-7a1,1,0,0,1,1-1h7A1,1,0,0,1,320.17,201Zm0,18v42.06a1,1,0,0,1-1,1h-7a1,1,0,0,1-1-1V219a1,1,0,0,1,1-1h7A1,1,0,0,1,320.17,219Z"/><path class="cls-1" d="M366.78,261.07a1,1,0,0,1-1,1h-7a1,1,0,0,1-1-1V219a1,1,0,0,1,1-1h19c11.26,0,20.06,6.6,20.06,15v28.07a1.06,1.06,0,0,1-1.06,1h-7a1,1,0,0,1-1.06-1V233c0-2.82-4.66-6-11-6h-9.94a1,1,0,0,0-1.06,1.06Z"/><path class="cls-1" d="M431,247.08V233c0-8.36,8.8-15,20-15h19a1.06,1.06,0,0,1,1.06,1v10.56c0,8.36-8.8,15-20.06,15H445.5a1,1,0,0,1-1.06-1v-7a1,1,0,0,1,1.06-1H451c6.34,0,11-3.17,11-6v-1.5a1,1,0,0,0-1-1.06H451c-6.25,0-11,3.17-11,6v14.08c0,2.82,4.75,6,11,6h19a1.06,1.06,0,0,1,1.06,1v7a1.06,1.06,0,0,1-1.06,1H451C439.78,262,431,255.44,431,247.08Z"/></g></g></svg>