<svg xmlns="http://www.w3.org/2000/svg" viewBox="0 0 471.02 162.57"><defs><style>.cls-1{fill:#fff;}</style></defs><title>sec_2</title><g id="レイヤー_2" data-name="レイヤー 2"><g id="レイヤー_1-2" data-name="レイヤー 1"><path class="cls-1" d="M0,19.1A1.06,1.06,0,0,1,1,18H8A1.06,1.06,0,0,1,9,19.1v28c0,2.82,4.75,6,11,6H30A1,1,0,0,0,31,52V19.1a1.06,1.06,0,0,1,1-1.06h7a1.06,1.06,0,0,1,1,1.06v42a1,1,0,0,1-1,1H20c-11.18,0-20-6.6-20-15Z"/><path class="cls-1" d="M92.79,33V47.08c0,8.36-8.8,15-20.06,15h-19a1,1,0,0,1-1-1v-60a1.06,1.06,0,0,1,1-1.06h7a1.06,1.06,0,0,1,1,1.06V52a1,1,0,0,0,1.06,1.06h9.94c6.34,0,11-3.17,11-6V33c0-2.82-4.66-6-11-6H67.27a1.06,1.06,0,0,1-1.06-1V19a1.06,1.06,0,0,1,1.06-1h5.46C84,18,92.79,24.64,92.79,33Z"/><path class="cls-1" d="M119,1V8a1,1,0,0,1-1,1h-7a1,1,0,0,1-1-1V1a1,1,0,0,1,1-1h7A1,1,0,0,1,119,1Zm0,18V61.07a1,1,0,0,1-1,1h-7a1,1,0,0,1-1-1V19a1,1,0,0,1,1-1h7A1,1,0,0,1,119,19Z"/><path class="cls-1" d="M136.33,47.08V33c0-8.36,8.8-15,20.06-15h19a1,1,0,0,1,1,1v60.1a1,1,0,0,1-1,1h-7a1,1,0,0,1-1-1v-51A1,1,0,0,0,166.34,27h-9.94c-6.34,0-11.09,3.17-11.09,6V47.08c0,2.82,4.75,6,11.09,6h5.46a1,1,0,0,1,1,1v7a1,1,0,0,1-1,1h-5.46C145.13,62,136.33,55.44,136.33,47.08Z"/><path class="cls-1" d="M189.16,19.1a1.06,1.06,0,0,1,1-1.06h7a1.06,1.06,0,0,1,1,1.06v28c0,2.82,4.75,6,11,6h10a1,1,0,0,0,1-1.06V19.1a1.06,1.06,0,0,1,1-1.06h7a1.06,1.06,0,0,1,1,1.06v42a1,1,0,0,1-1,1h-19c-11.18,0-20-6.6-20-15Z"/><path class="cls-1" d="M255.37,1V8a1,1,0,0,1-1,1h-7a1,1,0,0,1-1-1V1a1,1,0,0,1,1-1h7A1,1,0,0,1,255.37,1Zm0,18V61.07a1,1,0,0,1-1,1h-7a1,1,0,0,1-1-1V19a1,1,0,0,1,1-1h7A1,1,0,0,1,255.37,19Z"/><path class="cls-1" d="M292.63,28.07v19c0,2.82,4.75,6,11,6h8a1,1,0,0,1,1,1v7a1,1,0,0,1-1,1h-8c-11.18,0-20-6.6-20-15v-19a1.06,1.06,0,0,0-1-1.06h-9.06a1,1,0,0,1-1-1v-7a1,1,0,0,1,1-1.06h9.06a1,1,0,0,0,1-1v-16a1,1,0,0,1,1-1h7a1,1,0,0,1,1,1v16a1,1,0,0,0,1.06,1h18a1,1,0,0,1,1,1.06v7a1,1,0,0,1-1,1h-18A1.07,1.07,0,0,0,292.63,28.07Z"/><path class="cls-1" d="M365.44,32.56v15c0,8.45-8.8,15-20,15h-.09c-11.18,0-20-6.6-20-15v-15c0-8.45,8.8-15,20-15h.09C356.64,17.51,365.44,24.11,365.44,32.56Zm-9,15v-15c0-2.82-4.75-6.07-11-6.07h-.09c-6.25,0-11,3.26-11,6.07v15c0,2.9,4.75,6.07,11,6.07h.09C351.71,53.59,356.47,50.42,356.47,47.52Z"/><path class="cls-1" d="M378.24,19.1a1.06,1.06,0,0,1,1-1.06h7a1.06,1.06,0,0,1,1,1.06v28c0,2.82,4.75,6,11,6h10a1,1,0,0,0,1-1.06V19.1a1.06,1.06,0,0,1,1-1.06h7a1.06,1.06,0,0,1,1,1.06v42a1,1,0,0,1-1,1h-19c-11.18,0-20-6.6-20-15Z"/><path class="cls-1" d="M471,47.08c0,8.36-8.8,15-20.06,15H432a1,1,0,0,1-1-1V54a1,1,0,0,1,1-1h19a15.47,15.47,0,0,0,7.74-1.94c.44-.35.62-.62.62-1a1.17,1.17,0,0,0-.53-.88l-27.1-14.34a1.24,1.24,0,0,1-.7-1.06V33c0-8.36,8.8-15,20-15h19A1.06,1.06,0,0,1,471,19v7A1.06,1.06,0,0,1,470,27H451A16.08,16.08,0,0,0,443.13,29a1,1,0,0,0,.09,1.76l27.1,14.34a1.45,1.45,0,0,1,.7,1.06Z"/><path class="cls-1" d="M9,161.07a1,1,0,0,1-1,1H1a1,1,0,0,1-1-1V119a1,1,0,0,1,1-1H20C31.24,118,40,124.64,40,133v28.07A1.06,1.06,0,0,1,39,162H32a1,1,0,0,1-1.06-1V133c0-2.82-4.66-6-11-6H10A1,1,0,0,0,9,128.07Z"/><path class="cls-1" d="M69.51,147.08V133c0-8.36,8.8-15,20-15h19a1.06,1.06,0,0,1,1.06,1v10.56c0,8.36-8.8,15-20.06,15H84a1,1,0,0,1-1.06-1v-7a1,1,0,0,1,1.06-1h5.46c6.34,0,11-3.17,11-6v-1.5a1,1,0,0,0-1-1.06h-10c-6.25,0-11,3.17-11,6v14.08c0,2.82,4.75,6,11,6h19a1.06,1.06,0,0,1,1.06,1v7a1.06,1.06,0,0,1-1.06,1h-19C78.31,162,69.51,155.44,69.51,147.08Z"/><path class="cls-1" d="M159,128.07v19c0,2.82,4.75,6,11,6h8a1,1,0,0,1,1,1v7a1,1,0,0,1-1,1h-8c-11.18,0-20-6.6-20-15v-19a1.06,1.06,0,0,0-1-1.06H140a1,1,0,0,1-1-1v-7a1,1,0,0,1,1-1.06h9.06a1,1,0,0,0,1-1v-16a1,1,0,0,1,1-1h7a1,1,0,0,1,1,1v16a1,1,0,0,0,1.06,1h18a1,1,0,0,1,1,1.06v7a1,1,0,0,1-1,1h-18A1.07,1.07,0,0,0,159,128.07Z"/><path class="cls-1" d="M208.45,147.08V119a1,1,0,0,1,1-1h7a1,1,0,0,1,1,1v28.07c0,2.82,4.75,6,11,6h24a1,1,0,0,0,1-1.06V119a1,1,0,0,1,1.06-1h7a1,1,0,0,1,1.06,1v42.06a1,1,0,0,1-1.06,1h-33C217.25,162,208.45,155.44,208.45,147.08Zm22.53.44V119a1,1,0,0,1,1-1h7a1,1,0,0,1,1,1v28.51a1,1,0,0,1-1,1.06h-7A1,1,0,0,1,231,147.52Z"/><path class="cls-1" d="M332,132.56v15c0,8.45-8.8,15-20,15h-.09c-11.18,0-20-6.6-20-15v-15c0-8.45,8.8-15,20-15H312C323.2,117.51,332,124.11,332,132.56Zm-9,15v-15c0-2.82-4.75-6.07-11-6.07h-.09c-6.25,0-11,3.26-11,6.07v15c0,2.9,4.75,6.07,11,6.07H312C318.27,153.59,323,150.42,323,147.52Z"/><path class="cls-1" d="M370.45,133.09v28a1,1,0,0,1-1,1h-7a1,1,0,0,1-1-1v-28c0-8.45,8.8-15,20-15h19a1.06,1.06,0,0,1,1,1.06v7a1,1,0,0,1-1,1.06h-19C375.2,127.1,370.45,130.27,370.45,133.09Z"/><path class="cls-1" d="M465.57,140a.32.32,0,0,0,.09.26,13.1,13.1,0,0,1,5.37,10.3v10.56a1.06,1.06,0,0,1-1.06,1h-7a1,1,0,0,1-1-1V150.51c0-2.82-4.75-6-11-6h-10a1,1,0,0,0-1,1v15.58a1.06,1.06,0,0,1-1.06,1h-7a1,1,0,0,1-1-1V100.88a1,1,0,0,1,1-1h7a1,1,0,0,1,1,1L440,134.5a1,1,0,0,0,1,1h10c6.25,0,11-3.17,11-6V118.92a1,1,0,0,1,1-1h7a1.06,1.06,0,0,1,1.06,1v10.56a13.1,13.1,0,0,1-5.37,10.29C465.57,139.86,465.57,139.86,465.57,140Z"/></g></g></svg>