<svg xmlns="http://www.w3.org/2000/svg" viewBox="0 0 471.02 280.08"><title>sec_3</title><g id="レイヤー_2" data-name="レイヤー 2"><g id="レイヤー_1-2" data-name="レイヤー 1"><path d="M13.46,1V8a1,1,0,0,1-1,1h-7a1,1,0,0,1-1-1V1a1,1,0,0,1,1-1h7A1,1,0,0,1,13.46,1Zm0,18V61.07a1,1,0,0,1-1,1h-7a1,1,0,0,1-1-1V19a1,1,0,0,1,1-1h7A1,1,0,0,1,13.46,19Z"/><path d="M51.65,61.07a1,1,0,0,1-1,1h-7a1,1,0,0,1-1-1V19a1,1,0,0,1,1-1h19c11.26,0,20.06,6.6,20.06,15V61.07a1.06,1.06,0,0,1-1.06,1h-7a1,1,0,0,1-1.06-1V33c0-2.82-4.66-6-11-6H52.71a1,1,0,0,0-1.06,1.06Z"/><path d="M127.41,28.07v19c0,2.82,4.75,6,11,6h8a1,1,0,0,1,1,1v7a1,1,0,0,1-1,1h-8c-11.18,0-20-6.6-20-15v-19a1.06,1.06,0,0,0-1-1.06H108.4a1,1,0,0,1-1-1v-7a1,1,0,0,1,1-1.06h9.06a1,1,0,0,0,1-1v-16a1,1,0,0,1,1-1h7a1,1,0,0,1,1,1v16a1,1,0,0,0,1.06,1h18a1,1,0,0,1,1,1.06v7a1,1,0,0,1-1,1h-18A1.07,1.07,0,0,0,127.41,28.07Z"/><path d="M172.11,47.08V33c0-8.36,8.8-15,20-15h19a1.06,1.06,0,0,1,1.06,1V29.57c0,8.36-8.8,15-20.06,15h-5.46a1,1,0,0,1-1.06-1v-7a1,1,0,0,1,1.06-1h5.46c6.33,0,11-3.17,11-6v-1.5a1,1,0,0,0-1-1.06h-10c-6.25,0-11,3.17-11,6V47.08c0,2.82,4.75,6,11,6h19a1.06,1.06,0,0,1,1.06,1v7a1.06,1.06,0,0,1-1.06,1h-19C180.91,62,172.11,55.44,172.11,47.08Z"/><path d="M245.85,33.09v28a1,1,0,0,1-1,1h-7a1,1,0,0,1-1-1v-28c0-8.45,8.8-15,20-15h19a1.06,1.06,0,0,1,1,1.06v7a1,1,0,0,1-1,1.06h-19C250.6,27.1,245.85,30.27,245.85,33.09Z"/><path d="M310.52,61.07a1,1,0,0,1-1,1h-7a1,1,0,0,1-1-1V19a1,1,0,0,1,1-1h19c11.26,0,20.06,6.6,20.06,15V61.07a1.06,1.06,0,0,1-1.06,1h-7a1,1,0,0,1-1.06-1V33c0-2.82-4.66-6-11-6h-9.94a1,1,0,0,0-1.06,1.06Z"/><path d="M366.31,47.08V33c0-8.36,8.8-15,20-15h19a1.06,1.06,0,0,1,1.06,1V29.57c0,8.36-8.8,15-20.06,15h-5.46a1,1,0,0,1-1.06-1v-7a1,1,0,0,1,1.06-1h5.46c6.34,0,11-3.17,11-6v-1.5a1,1,0,0,0-1-1.06h-10c-6.25,0-11,3.17-11,6V47.08c0,2.82,4.75,6,11,6h19a1.06,1.06,0,0,1,1.06,1v7a1.06,1.06,0,0,1-1.06,1h-19C375.11,62,366.31,55.44,366.31,47.08Z"/><path d="M451,28.07v19c0,2.82,4.75,6,11,6h8a1,1,0,0,1,1,1v7a1,1,0,0,1-1,1h-8c-11.18,0-20-6.6-20-15v-19a1.06,1.06,0,0,0-1-1.06H432a1,1,0,0,1-1-1v-7A1,1,0,0,1,432,18h9.06a1,1,0,0,0,1-1v-16a1,1,0,0,1,1-1h7a1,1,0,0,1,1,1v16a1,1,0,0,0,1.06,1h18a1,1,0,0,1,1,1.06v7a1,1,0,0,1-1,1h-18A1.07,1.07,0,0,0,451,28.07Z"/><path d="M40,132.56v15c0,8.45-8.8,15-20,15H20c-11.18,0-20-6.6-20-15v-15c0-8.45,8.8-15,20-15h.09C31.24,117.51,40,124.11,40,132.56Zm-9,15v-15c0-2.82-4.75-6.07-11-6.07H20c-6.25,0-11,3.26-11,6.07v15c0,2.9,4.75,6.07,11,6.07h.09C26.31,153.59,31.06,150.42,31.06,147.52Z"/><path d="M431,126v-7a1,1,0,0,1,1-1H441a1,1,0,0,0,1-1v-2c0-8.45,8.8-15,20-15h8a1.14,1.14,0,0,1,1.06,1.05v7a1.07,1.07,0,0,1-1.06,1.05h-8c-6.25,0-11,3.17-11,6v2a1,1,0,0,0,1.06,1h18a1.06,1.06,0,0,1,1.06,1v7a1.06,1.06,0,0,1-1.06,1H452a1,1,0,0,0-1.06,1.06v33a1,1,0,0,1-1,1h-7a1,1,0,0,1-1-1v-33a1,1,0,0,0-1-1.06H432A1,1,0,0,1,431,126Z"/><path d="M20,228.07v19c0,2.82,4.75,6,11,6h8a1,1,0,0,1,1,1v7a1,1,0,0,1-1,1H31c-11.18,0-20-6.6-20-15v-19A1.06,1.06,0,0,0,10,227H1a1,1,0,0,1-1-1v-7A1,1,0,0,1,1,218H10a1,1,0,0,0,1-1v-16a1,1,0,0,1,1-1h7a1,1,0,0,1,1,1v16A1,1,0,0,0,21,218H39a1,1,0,0,1,1,1.06v7a1,1,0,0,1-1,1H21A1.07,1.07,0,0,0,20,228.07Z"/><path d="M130.58,233v28.07a1.06,1.06,0,0,1-1.06,1h-7a1,1,0,0,1-1.06-1V233c0-2.82-4.66-6-11-6h-9.94a1,1,0,0,0-1.06,1.06v33a1,1,0,0,1-1,1h-7a1,1,0,0,1-1-1v-60a1.06,1.06,0,0,1,1-1.05h7a1.06,1.06,0,0,1,1,1.05v16a1,1,0,0,0,1.06,1h9.94C121.78,218,130.58,224.64,130.58,233Z"/><path d="M194.64,201v7a1,1,0,0,1-1,1h-7a1,1,0,0,1-1-1v-7a1,1,0,0,1,1-1h7A1,1,0,0,1,194.64,201Zm0,18v42.06a1,1,0,0,1-1,1h-7a1,1,0,0,1-1-1V219a1,1,0,0,1,1-1h7A1,1,0,0,1,194.64,219Z"/><path d="M258.7,261.07a1,1,0,0,1-1,1h-7a1,1,0,0,1-1-1V219a1,1,0,0,1,1-1h19c11.26,0,20.06,6.6,20.06,15v28.07a1.06,1.06,0,0,1-1.06,1h-7a1,1,0,0,1-1.06-1V233c0-2.82-4.66-6-11-6h-9.94a1,1,0,0,0-1.06,1.06Z"/><path d="M380.39,219v46c0,8.45-8.8,15-20.06,15h-19a1.06,1.06,0,0,1-1-1.05v-7a1,1,0,0,1,1-1.05h19c6.33,0,11-3.17,11-6v-37a1,1,0,0,0-1-1.06h-10c-6.25,0-11,3.17-11,6v14.08c0,2.82,4.75,6,11,6h5.54a1,1,0,0,1,1,1v7a1,1,0,0,1-1,1h-5.54c-11.18,0-20-6.6-20-15V233c0-8.36,8.8-15,20-15h19A1.06,1.06,0,0,1,380.39,219Z"/><path d="M471,247.08c0,8.36-8.8,15-20.06,15H432a1,1,0,0,1-1-1v-7a1,1,0,0,1,1-1h19a15.47,15.47,0,0,0,7.74-1.94c.44-.35.62-.62.62-1a1.17,1.17,0,0,0-.53-.88l-27.1-14.34a1.24,1.24,0,0,1-.7-1.05V233c0-8.36,8.8-15,20-15h19a1.06,1.06,0,0,1,1.06,1v7a1.06,1.06,0,0,1-1.06,1H451a16.08,16.08,0,0,0-7.83,1.94,1,1,0,0,0,.09,1.76l27.1,14.34a1.45,1.45,0,0,1,.7,1.05Z"/></g></g></svg>