<svg xmlns="http://www.w3.org/2000/svg" viewBox="0 0 480 518.83"><title>str_1</title><g id="レイヤー_2" data-name="レイヤー 2"><g id="レイヤー_1-2" data-name="レイヤー 1"><path d="M41.75,245.55v14.59c0,8.72-9.17,15.6-20.83,15.6H1a1,1,0,0,1-1-1v-11c0-8.72,9.17-15.6,20.92-15.6h5.69a1,1,0,0,1,1.1,1v7.34a1,1,0,0,1-1.1,1H20.92c-6.61,0-11.56,3.3-11.56,6.24v1.56a1.12,1.12,0,0,0,1.1,1.1H20.92c6.51,0,11.47-3.3,11.47-6.24V245.55c0-3-5-6.33-11.47-6.33H1a1,1,0,0,1-1-1v-7.34a1,1,0,0,1,1-1H20.92C32.57,229.86,41.75,236.74,41.75,245.55Z"/><path d="M95.09,245.46v14.68c0,8.72-9.17,15.6-20.92,15.6H54.35a1,1,0,0,1-1-1V212.15a1.1,1.1,0,0,1,1-1.1h7.34a1.1,1.1,0,0,1,1,1.1v53.12a1.06,1.06,0,0,0,1.1,1.1H74.17c6.61,0,11.47-3.3,11.47-6.24V245.46c0-2.94-4.86-6.24-11.47-6.24H68.48a1.1,1.1,0,0,1-1.1-1v-7.34a1.1,1.1,0,0,1,1.1-1h5.69C85.92,229.86,95.09,236.74,95.09,245.46Z"/><path d="M148.43,230.87v7.34a1.1,1.1,0,0,1-1.1,1H127.51c-6.51,0-11.47,3.3-11.47,6.24v14.68c0,2.94,5,6.24,11.47,6.24h19.82a1.1,1.1,0,0,1,1.1,1v7.34a1.1,1.1,0,0,1-1.1,1H127.51c-11.65,0-20.83-6.88-20.83-15.6V245.46c0-8.72,9.17-15.6,20.83-15.6h19.82A1.1,1.1,0,0,1,148.43,230.87Z"/><path d="M180.86,229.86h5.78a1,1,0,0,1,1,1v7.34a1,1,0,0,1-1,1h-5.78c-6.51,0-11.47,3.3-11.47,6.24v14.68c0,2.94,5,6.24,11.47,6.24h10.46a1,1,0,0,0,1-1.1V212.15a1.12,1.12,0,0,1,1.1-1.1h7.25a1.18,1.18,0,0,1,1.1,1.1v62.57a1.1,1.1,0,0,1-1.1,1H180.86c-11.65,0-20.83-6.88-20.83-15.6V245.46C160,236.74,169.21,229.86,180.86,229.86Z"/><path d="M213.37,260.14V245.46c0-8.72,9.17-15.6,20.83-15.6H254a1.1,1.1,0,0,1,1.1,1v11c0,8.72-9.18,15.6-20.92,15.6h-5.69a1,1,0,0,1-1.1-1v-7.34a1,1,0,0,1,1.1-1h5.69c6.61,0,11.47-3.3,11.47-6.24v-1.56a1,1,0,0,0-1-1.1H234.2c-6.51,0-11.47,3.3-11.47,6.24v14.68c0,2.94,5,6.24,11.47,6.24H254a1.1,1.1,0,0,1,1.1,1v7.34a1.1,1.1,0,0,1-1.1,1H234.2C222.55,275.74,213.37,268.85,213.37,260.14Z"/><path d="M266.72,238.21v-7.34a1,1,0,0,1,1-1h9.45a1,1,0,0,0,1-1v-2.11c0-8.81,9.18-15.69,20.83-15.69h8.35a1.18,1.18,0,0,1,1.1,1.1v7.25a1.12,1.12,0,0,1-1.1,1.1H299c-6.52,0-11.47,3.3-11.47,6.24v2.11a1,1,0,0,0,1.1,1h18.72a1.1,1.1,0,0,1,1.1,1v7.34a1.1,1.1,0,0,1-1.1,1H288.65a1.06,1.06,0,0,0-1.1,1.1v34.41a1,1,0,0,1-1,1H279.2a1,1,0,0,1-1-1V240.32a1,1,0,0,0-1-1.1h-9.45A1,1,0,0,1,266.72,238.21Z"/><path d="M361.81,230.87v48c0,8.81-9.17,15.69-20.92,15.69H321.07a1.1,1.1,0,0,1-1-1.1V286.2a1,1,0,0,1,1-1.1h19.82c6.61,0,11.47-3.3,11.47-6.24V240.32a1,1,0,0,0-1-1.1H340.89c-6.51,0-11.47,3.3-11.47,6.24v14.68c0,2.94,5,6.24,11.47,6.24h5.78a1,1,0,0,1,1,1v7.34a1,1,0,0,1-1,1h-5.78c-11.65,0-20.83-6.88-20.83-15.6V245.46c0-8.72,9.17-15.6,20.83-15.6h19.82A1.1,1.1,0,0,1,361.81,230.87Z"/><path d="M415.15,245.46v29.27a1.1,1.1,0,0,1-1.1,1H406.8a1,1,0,0,1-1.1-1V245.46c0-2.94-4.86-6.24-11.47-6.24H383.86a1.06,1.06,0,0,0-1.1,1.1v34.41a1,1,0,0,1-1,1h-7.34a1,1,0,0,1-1-1V212.15a1.1,1.1,0,0,1,1-1.1h7.34a1.1,1.1,0,0,1,1,1.1v16.7a1,1,0,0,0,1.1,1h10.37C406,229.86,415.15,236.74,415.15,245.46Z"/><path d="M440.79,212.06v7.34a1,1,0,0,1-1,1h-7.34a1,1,0,0,1-1-1v-7.34a1,1,0,0,1,1-1h7.34A1,1,0,0,1,440.79,212.06Zm0,18.81v43.86a1,1,0,0,1-1,1h-7.34a1,1,0,0,1-1-1V230.87a1,1,0,0,1,1-1h7.34A1,1,0,0,1,440.79,230.87Z"/><path d="M447.7,286.56a1.1,1.1,0,0,1,1.1-1h10.37c6.51,0,11.47-3.3,11.47-6.24v-48a1.06,1.06,0,0,1,1.1-1.1h7.16a1.06,1.06,0,0,1,1.1,1.1v48c0,8.81-9.08,15.6-20.83,15.6H448.8a1,1,0,0,1-1.1-1Zm32.3-74v7.25a1,1,0,0,1-1.1,1h-7.16a1,1,0,0,1-1.1-1v-7.25a1.06,1.06,0,0,1,1.1-1.1h7.16A1.06,1.06,0,0,1,480,212.61Z"/><path d="M36.15,364.85a.34.34,0,0,0,.09.27,13.66,13.66,0,0,1,5.6,10.74v11a1.1,1.1,0,0,1-1.1,1H33.4a1,1,0,0,1-1-1v-11c0-2.94-5-6.24-11.47-6.24H10.46a1,1,0,0,0-1,1v16.24a1.1,1.1,0,0,1-1.1,1H1a1,1,0,0,1-1-1V324.11a1,1,0,0,1,1-1H8.35a1,1,0,0,1,1,1l.09,35a1,1,0,0,0,1,1H20.92c6.51,0,11.47-3.3,11.47-6.24v-11a1,1,0,0,1,1-1h7.34a1.1,1.1,0,0,1,1.1,1v11a13.66,13.66,0,0,1-5.6,10.73C36.15,364.76,36.15,364.76,36.15,364.85Z"/><path d="M86.53,379.53v7.34a1,1,0,0,1-1,1H75.06c-11.65,0-20.83-6.88-20.83-15.6v-48a1,1,0,0,1,1-1h7.34a1,1,0,0,1,1,1v48c0,2.94,5,6.24,11.47,6.24H85.52A1,1,0,0,1,86.53,379.53Z"/><path d="M155.25,357.6v29.27a1,1,0,0,1-1.1,1H146.9a1,1,0,0,1-1.1-1V357.6c0-2.94-4.86-6.24-11.47-6.24h-25a1.06,1.06,0,0,0-1.1,1.1v34.41a1,1,0,0,1-1,1H99.93a1,1,0,0,1-1-1V343a1,1,0,0,1,1-1h34.41C146.08,342,155.25,348.89,155.25,357.6Zm-23.49-.46v29.73a1,1,0,0,1-1,1h-7.34a1,1,0,0,1-1-1V357.14a1,1,0,0,1,1-1.1h7.34A1,1,0,0,1,131.77,357.14Z"/><path d="M177,386.87a1,1,0,0,1-1,1h-7.34a1,1,0,0,1-1-1V343a1,1,0,0,1,1-1h19.82c11.74,0,20.92,6.88,20.92,15.6v29.27a1.1,1.1,0,0,1-1.1,1H201a1,1,0,0,1-1.1-1V357.6c0-2.94-4.86-6.24-11.47-6.24H178.11a1.06,1.06,0,0,0-1.1,1.1Z"/><path d="M263.53,357.14v15.6c0,8.81-9.17,15.69-20.83,15.69h-.09c-11.65,0-20.83-6.88-20.83-15.69v-15.6c0-8.81,9.17-15.69,20.83-15.69h.09C254.36,341.45,263.53,348.34,263.53,357.14Zm-9.36,15.6v-15.6c0-2.94-5-6.33-11.47-6.33h-.09c-6.51,0-11.47,3.39-11.47,6.33v15.6c0,3,5,6.33,11.47,6.33h.09C249.22,379.07,254.17,375.77,254.17,372.74Z"/><path d="M296.84,387.88h-5.78a1,1,0,0,1-1-1v-7.34a1,1,0,0,1,1-1h5.78c6.51,0,11.47-3.3,11.47-6.24V357.6c0-2.94-5-6.24-11.47-6.24H286.38a1.06,1.06,0,0,0-1.1,1.1v53.21a1,1,0,0,1-1,1h-7.34a1,1,0,0,1-1-1V343a1,1,0,0,1,1-1h19.91c11.65,0,20.83,6.88,20.83,15.6v14.68C317.67,381,308.5,387.88,296.84,387.88Z"/><path d="M330.06,372.28V357.6c0-8.72,9.17-15.6,20.92-15.6H370.8a1,1,0,0,1,1,1v62.67a1,1,0,0,1-1,1h-7.34a1,1,0,0,1-1-1V352.46a1.06,1.06,0,0,0-1.1-1.1H351c-6.6,0-11.56,3.3-11.56,6.24v14.68c0,2.94,5,6.24,11.56,6.24h5.69a1,1,0,0,1,1,1v7.34a1,1,0,0,1-1,1H351C339.24,387.88,330.06,381,330.06,372.28Z"/><path d="M393.56,357.69v29.18a1,1,0,0,1-1,1h-7.34a1,1,0,0,1-1-1V357.69c0-8.81,9.17-15.69,20.83-15.69h19.82a1.1,1.1,0,0,1,1,1.1v7.25a1,1,0,0,1-1,1.1H405C398.52,351.46,393.56,354.76,393.56,357.69Z"/><path d="M480,372.28c0,8.72-9.18,15.6-20.92,15.6H439.26a1,1,0,0,1-1-1v-7.34a1,1,0,0,1,1-1h19.82a16.14,16.14,0,0,0,8.07-2c.46-.37.64-.64.64-1a1.22,1.22,0,0,0-.55-.92l-28.26-15a1.29,1.29,0,0,1-.73-1.1v-.92c0-8.72,9.18-15.6,20.83-15.6H478.9a1.1,1.1,0,0,1,1.1,1v7.34a1.1,1.1,0,0,1-1.1,1H459.08a16.77,16.77,0,0,0-8.17,2,1.09,1.09,0,0,0,.09,1.83l28.26,15a1.51,1.51,0,0,1,.73,1.1Z"/><path d="M20.83,464.61v19.82c0,2.94,5,6.24,11.47,6.24h8.35a1,1,0,0,1,1,1V499a1,1,0,0,1-1,1H32.3c-11.65,0-20.83-6.88-20.83-15.6V464.61a1.1,1.1,0,0,0-1-1.1H1a1,1,0,0,1-1-1v-7.25a1,1,0,0,1,1-1.1h9.45a1,1,0,0,0,1-1v-16.7a1,1,0,0,1,1-1h7.34a1,1,0,0,1,1,1v16.7a1,1,0,0,0,1.1,1H40.65a1,1,0,0,1,1,1.1v7.25a1,1,0,0,1-1,1H21.93A1.12,1.12,0,0,0,20.83,464.61Z"/><path d="M55.3,455.25a1.1,1.1,0,0,1,1-1.1h7.34a1.1,1.1,0,0,1,1,1.1v29.18c0,2.94,5,6.24,11.47,6.24H86.59a1,1,0,0,0,1-1.1V455.25a1.1,1.1,0,0,1,1-1.1h7.34a1.1,1.1,0,0,1,1,1.1V499a1,1,0,0,1-1,1H76.13c-11.65,0-20.83-6.88-20.83-15.6Z"/><path d="M156.75,455.16a1.17,1.17,0,0,1-.09.55l-20.37,43.67a.91.91,0,0,1-.92.64H127.3a1.1,1.1,0,0,1-.92-.64L106,455.71c0-.18-.09-.37-.09-.55a1,1,0,0,1,1-1H115a1.13,1.13,0,0,1,1,.64l14.4,31a1.11,1.11,0,0,0,.92.64.91.91,0,0,0,.92-.64l14.5-31a1,1,0,0,1,.92-.64h8.07A1,1,0,0,1,156.75,455.16Z"/><path d="M165.72,484.43V455.16a1,1,0,0,1,1-1h7.34a1,1,0,0,1,1,1v29.27c0,2.94,5,6.24,11.47,6.24h25a1,1,0,0,0,1-1.1V455.16a1,1,0,0,1,1.1-1H221a1,1,0,0,1,1.1,1V499a1,1,0,0,1-1.1,1H186.55C174.89,500,165.72,493.14,165.72,484.43Zm23.49.46V455.16a1,1,0,0,1,1-1h7.34a1,1,0,0,1,1,1v29.73a1,1,0,0,1-1,1.1h-7.34A1,1,0,0,1,189.21,484.89Z"/><path d="M277.36,455.25c0,7.71-3,14.31-7.52,17.89l-20.55,15.14c-2.2,1.56-4.22,5.69-4.22,10.73a1,1,0,0,1-1,1h-7.34a1,1,0,0,1-1-1c0-7.8,3-14.4,7.62-18l20.46-15c2.29-1.65,4.22-5.69,4.22-10.73a1.1,1.1,0,0,1,1-1.1h7.34A1.1,1.1,0,0,1,277.36,455.25Zm-34,17.89c-4.59-3.58-7.62-10.18-7.62-17.89a1.1,1.1,0,0,1,1-1.1H244a1.1,1.1,0,0,1,1,1.1c0,5,2,9.08,4.22,10.73l2.57,1.93a1,1,0,0,1,.46.83,1.1,1.1,0,0,1-.46.83l-6.15,4.5a1.31,1.31,0,0,1-.55.18,1.32,1.32,0,0,1-.64-.18ZM269.83,481c4.5,3.58,7.52,10.18,7.52,18a1,1,0,0,1-1,1H269a1,1,0,0,1-1-1c0-5-1.93-9.17-4.22-10.73l-2.57-1.93a1,1,0,0,1,0-1.65l6.15-4.59a1.33,1.33,0,0,1,.64-.18.79.79,0,0,1,.55.27Z"/><path d="M332.75,503.14c0,8.81-9.18,15.69-20.83,15.69H292a1,1,0,0,1-1-1v-7.34a1,1,0,0,1,1-1h19.91c6.51,0,11.47-3.3,11.47-6.33v-2a1.06,1.06,0,0,0-1.1-1.1H311.83c-11.65,0-20.83-6.88-20.83-15.6V455.16a1,1,0,0,1,1-1h7.34a1,1,0,0,1,1,1v29.27c0,2.94,5,6.24,11.47,6.24h10.46a1.06,1.06,0,0,0,1.1-1.1V455.16a1,1,0,0,1,1-1h7.34a1,1,0,0,1,1,1Z"/><path d="M388.14,491.68V499a1.1,1.1,0,0,1-1.1,1H347.4a1,1,0,0,1-1-1c0-7.8,3-14.4,7.62-18l20.46-15.14a5,5,0,0,0,.83-.64,1.37,1.37,0,0,0,.28-.64,1.06,1.06,0,0,0-1.1-1.1H347.4a1,1,0,0,1-1-1v-7.34a1,1,0,0,1,1-1H387a1.1,1.1,0,0,1,1.1,1c0,7.8-3,14.4-7.62,18L360,488.28a4.56,4.56,0,0,0-.73.64.83.83,0,0,0-.27.64,1,1,0,0,0,1,1.1H387A1.1,1.1,0,0,1,388.14,491.68Z"/><path d="M434,473.42v7.34a1,1,0,0,1-1,1H402.8a1,1,0,0,1-1-1v-7.34a1,1,0,0,1,1-1H433A1,1,0,0,1,434,473.42Z"/><path d="M457,491.68V500c0,5.78-3.49,10.37-7.8,10.37a1,1,0,0,1-1-1v-2.66a1,1,0,0,1,1-1c1.38,0,2.84-1.93,3-4.77.09-.55-.37-.92-.92-.92h-2.66a1,1,0,0,1-1-1v-7.34a1,1,0,0,1,1-1H456A1,1,0,0,1,457,491.68Z"/><path d="M480,491.68V499a1,1,0,0,1-1,1h-7.34a1,1,0,0,1-1-1v-7.34a1,1,0,0,1,1-1H479A1,1,0,0,1,480,491.68Z"/><path d="M213.91,98.21A12.52,12.52,0,1,1,201.39,85.7,12.52,12.52,0,0,1,213.91,98.21Zm64.7-12.51a12.51,12.51,0,1,0,12.52,12.51A12.52,12.52,0,0,0,278.61,85.7ZM155.92,54.25a1.46,1.46,0,0,0-1.07-.47,1.5,1.5,0,0,0-.39.05A47.06,47.06,0,0,0,120,99.07a46.52,46.52,0,0,0,8.29,26.62,1.46,1.46,0,0,0,1.2.63h.19a1.46,1.46,0,0,0,1.19-.95l25.35-69.62A1.46,1.46,0,0,0,155.92,54.25Zm96.6,44a26.11,26.11,0,0,1,26.09-26.07l1.17,0h.07a1.46,1.46,0,0,0,1.37-1l2.93-8a1.42,1.42,0,0,0,.08-.33,18.77,18.77,0,0,0-24.14-22.7h0a1.25,1.25,0,0,1-1.65-1.05l0-.07a44,44,0,0,0-15.61-29,1.46,1.46,0,0,0-2.31.62L216.75,75.85a1.46,1.46,0,0,0,.48,1.66,26.06,26.06,0,0,1-15.85,46.77l-1.17,0h-.07a1.46,1.46,0,0,0-1.37,1L191.92,144a1.46,1.46,0,0,0,1.37,2H253a1.46,1.46,0,0,0,1.37-1l8.91-24.46a1.46,1.46,0,0,0-.49-1.66A26.24,26.24,0,0,1,252.52,98.21Zm-77.22,0a26.11,26.11,0,0,1,26.09-26.07l1.17,0h.07a1.46,1.46,0,0,0,1.37-1L228.56,3.79a1.46,1.46,0,0,0-.95-1.9A43.85,43.85,0,0,0,171,43.8a46.61,46.61,0,0,0,.72,8,2.53,2.53,0,0,1,0,1L141.1,136.9a1.46,1.46,0,0,0,.59,1.73A46.8,46.8,0,0,0,167,146h8.79a1.46,1.46,0,0,0,1.37-1L186,120.58a1.46,1.46,0,0,0-.49-1.66A26.24,26.24,0,0,1,175.31,98.21Zm175-24a1.47,1.47,0,0,0-1.14-.55l-.24,0a1.46,1.46,0,0,0-1.14.94l-25,68.56a1.46,1.46,0,0,0,1.37,2,1.43,1.43,0,0,0,.29,0,44.21,44.21,0,0,0,25.82-70.9ZM336.41,62.68a44.22,44.22,0,0,0-36.28-2.27,1.46,1.46,0,0,0-.86.87L294,75.85a1.46,1.46,0,0,0,.48,1.66,26.06,26.06,0,0,1-15.84,46.77l-1.17,0h-.07a1.46,1.46,0,0,0-1.37,1L269.14,144a1.46,1.46,0,0,0,1.37,2h35.88a1.46,1.46,0,0,0,1.37-1L337.1,64.47A1.46,1.46,0,0,0,336.41,62.68Z"/></g></g></svg>