<svg xmlns="http://www.w3.org/2000/svg" viewBox="0 0 480 307.78"><title>str_3</title><g id="レイヤー_2" data-name="レイヤー 2"><g id="レイヤー_1-2" data-name="レイヤー 1"><path d="M14,1V8.35a1,1,0,0,1-1,1H5.69a1,1,0,0,1-1-1V1a1,1,0,0,1,1-1H13A1,1,0,0,1,14,1Zm0,18.81V63.67a1,1,0,0,1-1,1H5.69a1,1,0,0,1-1-1V19.82a1,1,0,0,1,1-1H13A1,1,0,0,1,14,19.82Z"/><path d="M52.27,63.67a1,1,0,0,1-1,1H43.92a1,1,0,0,1-1-1V19.82a1,1,0,0,1,1-1H63.73c11.74,0,20.92,6.88,20.92,15.6V63.67a1.1,1.1,0,0,1-1.1,1H76.3a1,1,0,0,1-1.1-1V34.41c0-2.94-4.86-6.24-11.47-6.24H53.37a1.06,1.06,0,0,0-1.1,1.1Z"/><path d="M129.67,29.27V49.09c0,2.94,5,6.24,11.47,6.24h8.35a1,1,0,0,1,1,1v7.34a1,1,0,0,1-1,1h-8.35c-11.65,0-20.83-6.88-20.83-15.6V29.27a1.1,1.1,0,0,0-1-1.1h-9.45a1,1,0,0,1-1-1V19.91a1,1,0,0,1,1-1.1h9.45a1,1,0,0,0,1-1V1.1a1,1,0,0,1,1-1h7.34a1,1,0,0,1,1,1V17.8a1,1,0,0,0,1.1,1h18.72a1,1,0,0,1,1,1.1v7.25a1,1,0,0,1-1,1H130.77A1.12,1.12,0,0,0,129.67,29.27Z"/><path d="M174.69,49.09V34.41c0-8.72,9.18-15.6,20.83-15.6h19.82a1.1,1.1,0,0,1,1.1,1v11c0,8.72-9.17,15.6-20.92,15.6h-5.69a1,1,0,0,1-1.1-1V38.08a1,1,0,0,1,1.1-1h5.69c6.61,0,11.47-3.3,11.47-6.24V29.27a1,1,0,0,0-1-1.1H195.52c-6.51,0-11.47,3.3-11.47,6.24V49.09c0,2.94,5,6.24,11.47,6.24h19.82a1.1,1.1,0,0,1,1.1,1v7.34a1.1,1.1,0,0,1-1.1,1H195.52C183.86,64.68,174.69,57.8,174.69,49.09Z"/><path d="M250,34.5V63.67a1,1,0,0,1-1,1h-7.34a1,1,0,0,1-1-1V34.5c0-8.81,9.17-15.69,20.83-15.69h19.82a1.1,1.1,0,0,1,1,1.1v7.25a1,1,0,0,1-1,1.1H261.45C254.94,28.26,250,31.56,250,34.5Z"/><path d="M315.83,63.67a1,1,0,0,1-1,1h-7.34a1,1,0,0,1-1-1V19.82a1,1,0,0,1,1-1H327.3c11.74,0,20.92,6.88,20.92,15.6V63.67a1.1,1.1,0,0,1-1.1,1h-7.25a1,1,0,0,1-1.1-1V34.41c0-2.94-4.86-6.24-11.47-6.24H316.93a1.06,1.06,0,0,0-1.1,1.1Z"/><path d="M372.41,49.09V34.41c0-8.72,9.17-15.6,20.83-15.6h19.82a1.1,1.1,0,0,1,1.1,1v11c0,8.72-9.18,15.6-20.92,15.6h-5.69a1,1,0,0,1-1.1-1V38.08a1,1,0,0,1,1.1-1h5.69c6.61,0,11.47-3.3,11.47-6.24V29.27a1,1,0,0,0-1-1.1H393.24c-6.51,0-11.47,3.3-11.47,6.24V49.09c0,2.94,5,6.24,11.47,6.24h19.82a1.1,1.1,0,0,1,1.1,1v7.34a1.1,1.1,0,0,1-1.1,1H393.24C381.58,64.68,372.41,57.8,372.41,49.09Z"/><path d="M459.17,29.27V49.09c0,2.94,5,6.24,11.47,6.24H479a1,1,0,0,1,1,1v7.34a1,1,0,0,1-1,1h-8.35c-11.65,0-20.83-6.88-20.83-15.6V29.27a1.1,1.1,0,0,0-1-1.1h-9.45a1,1,0,0,1-1-1V19.91a1,1,0,0,1,1-1.1h9.45a1,1,0,0,0,1-1V1.1a1,1,0,0,1,1-1h7.34a1,1,0,0,1,1,1V17.8a1,1,0,0,0,1.1,1H479a1,1,0,0,1,1,1.1v7.25a1,1,0,0,1-1,1H460.27A1.12,1.12,0,0,0,459.17,29.27Z"/><path d="M41.75,146.09v15.6c0,8.81-9.18,15.69-20.83,15.69h-.09C9.17,177.38,0,170.5,0,161.69v-15.6c0-8.81,9.17-15.69,20.83-15.69h.09C32.57,130.4,41.75,137.28,41.75,146.09Zm-9.36,15.6v-15.6c0-2.94-5-6.33-11.47-6.33h-.09c-6.51,0-11.47,3.4-11.47,6.33v15.6c0,3,5,6.33,11.47,6.33h.09C27.43,168,32.39,164.72,32.39,161.69Z"/><path d="M438.25,139.3V132a1,1,0,0,1,1-1h9.45a1,1,0,0,0,1-1v-2.11c0-8.81,9.17-15.69,20.83-15.69h8.35a1.18,1.18,0,0,1,1.1,1.1v7.25a1.12,1.12,0,0,1-1.1,1.1h-8.35c-6.51,0-11.47,3.3-11.47,6.24v2.11a1,1,0,0,0,1.1,1H478.9a1.1,1.1,0,0,1,1.1,1v7.34a1.1,1.1,0,0,1-1.1,1H460.18a1.06,1.06,0,0,0-1.1,1.1v34.41a1,1,0,0,1-1,1h-7.34a1,1,0,0,1-1-1V141.41a1,1,0,0,0-1-1.1h-9.45A1,1,0,0,1,438.25,139.3Z"/><path d="M20.83,253.56v19.82c0,2.94,5,6.24,11.47,6.24h8.35a1,1,0,0,1,1,1V288a1,1,0,0,1-1,1H32.3c-11.65,0-20.83-6.88-20.83-15.6V253.56a1.1,1.1,0,0,0-1-1.1H1a1,1,0,0,1-1-1V244.2a1,1,0,0,1,1-1.1h9.45a1,1,0,0,0,1-1v-16.7a1,1,0,0,1,1-1h7.34a1,1,0,0,1,1,1v16.7a1,1,0,0,0,1.1,1H40.65a1,1,0,0,1,1,1.1v7.25a1,1,0,0,1-1,1H21.93A1.12,1.12,0,0,0,20.83,253.56Z"/><path d="M133.93,258.7V288a1.1,1.1,0,0,1-1.1,1h-7.25a1,1,0,0,1-1.1-1V258.7c0-2.94-4.86-6.24-11.47-6.24H102.64a1.06,1.06,0,0,0-1.1,1.1V288a1,1,0,0,1-1,1H93.19a1,1,0,0,1-1-1V225.39a1.1,1.1,0,0,1,1-1.1h7.34a1.1,1.1,0,0,1,1,1.1v16.7a1,1,0,0,0,1.1,1H113C124.76,243.1,133.93,250,133.93,258.7Z"/><path d="M198.5,225.3v7.34a1,1,0,0,1-1,1h-7.34a1,1,0,0,1-1-1V225.3a1,1,0,0,1,1-1h7.34A1,1,0,0,1,198.5,225.3Zm0,18.81V288a1,1,0,0,1-1,1h-7.34a1,1,0,0,1-1-1V244.11a1,1,0,0,1,1-1h7.34A1,1,0,0,1,198.5,244.11Z"/><path d="M263.06,288a1,1,0,0,1-1,1h-7.34a1,1,0,0,1-1-1V244.11a1,1,0,0,1,1-1h19.82c11.74,0,20.92,6.88,20.92,15.6V288a1.1,1.1,0,0,1-1.1,1H287.1a1,1,0,0,1-1.1-1V258.7c0-2.94-4.86-6.24-11.47-6.24H264.16a1.06,1.06,0,0,0-1.1,1.1Z"/><path d="M387.73,244.11v48c0,8.81-9.18,15.69-20.92,15.69H347a1.1,1.1,0,0,1-1-1.1v-7.25a1,1,0,0,1,1-1.1h19.82c6.61,0,11.47-3.3,11.47-6.24V253.56a1,1,0,0,0-1-1.1H366.81c-6.51,0-11.47,3.3-11.47,6.24v14.68c0,2.94,5,6.24,11.47,6.24h5.78a1,1,0,0,1,1,1V288a1,1,0,0,1-1,1h-5.78c-11.65,0-20.83-6.88-20.83-15.6V258.7c0-8.72,9.17-15.6,20.83-15.6h19.82A1.1,1.1,0,0,1,387.73,244.11Z"/><path d="M480,273.38c0,8.72-9.18,15.6-20.92,15.6H439.26a1,1,0,0,1-1-1v-7.34a1,1,0,0,1,1-1h19.82a16.14,16.14,0,0,0,8.07-2c.46-.37.64-.64.64-1a1.22,1.22,0,0,0-.55-.92l-28.26-15a1.3,1.3,0,0,1-.73-1.1v-.92c0-8.72,9.18-15.6,20.83-15.6H478.9a1.1,1.1,0,0,1,1.1,1v7.34a1.1,1.1,0,0,1-1.1,1H459.08a16.77,16.77,0,0,0-8.16,2,1.09,1.09,0,0,0,.09,1.84l28.26,15a1.51,1.51,0,0,1,.73,1.1Z"/></g></g></svg>