<svg xmlns="http://www.w3.org/2000/svg" viewBox="0 0 480 288.97"><defs><style>.cls-1{fill:#fff;}</style></defs><title>str_4</title><g id="レイヤー_2" data-name="レイヤー 2"><g id="レイヤー_1-2" data-name="レイヤー 1"><path class="cls-1" d="M56.34,34.41V63.67a1,1,0,0,1-1.1,1H48a1,1,0,0,1-1.1-1V34.41c0-2.94-4.86-6.24-11.47-6.24h-25a1.06,1.06,0,0,0-1.1,1.1V63.67a1,1,0,0,1-1,1H1a1,1,0,0,1-1-1V19.82a1,1,0,0,1,1-1H35.42C47.16,18.81,56.34,25.69,56.34,34.41Zm-23.49-.46V63.67a1,1,0,0,1-1,1H24.5a1,1,0,0,1-1-1V33.95a1,1,0,0,1,1-1.1h7.34A1,1,0,0,1,32.85,33.95Z"/><path class="cls-1" d="M130.78,34.5V49.09c0,8.72-9.18,15.6-20.83,15.6H90a1,1,0,0,1-1-1v-11c0-8.72,9.17-15.6,20.92-15.6h5.69a1,1,0,0,1,1.1,1v7.34a1,1,0,0,1-1.1,1H110c-6.61,0-11.56,3.3-11.56,6.24v1.56a1.12,1.12,0,0,0,1.1,1.1H110c6.51,0,11.47-3.3,11.47-6.24V34.5c0-3-5-6.33-11.47-6.33H90a1,1,0,0,1-1-1V19.82a1,1,0,0,1,1-1H110C121.61,18.81,130.78,25.69,130.78,34.5Z"/><path class="cls-1" d="M205.23,19.82v7.34a1.1,1.1,0,0,1-1.1,1H184.31c-6.51,0-11.47,3.3-11.47,6.24V49.09c0,2.94,5,6.24,11.47,6.24h19.82a1.1,1.1,0,0,1,1.1,1v7.34a1.1,1.1,0,0,1-1.1,1H184.31c-11.65,0-20.83-6.88-20.83-15.6V34.41c0-8.72,9.18-15.6,20.83-15.6h19.82A1.1,1.1,0,0,1,205.23,19.82Z"/><path class="cls-1" d="M279.68,34.41V63.67a1.1,1.1,0,0,1-1.1,1h-7.25a1,1,0,0,1-1.1-1V34.41c0-2.94-4.86-6.24-11.47-6.24H248.39a1.06,1.06,0,0,0-1.1,1.1V63.67a1,1,0,0,1-1,1h-7.34a1,1,0,0,1-1-1V1.1a1.1,1.1,0,0,1,1-1.1h7.34a1.1,1.1,0,0,1,1,1.1V17.8a1,1,0,0,0,1.1,1h10.37C270.51,18.81,279.68,25.69,279.68,34.41Z"/><path class="cls-1" d="M326.42,1V8.35a1,1,0,0,1-1,1h-7.34a1,1,0,0,1-1-1V1a1,1,0,0,1,1-1h7.34A1,1,0,0,1,326.42,1Zm0,18.81V63.67a1,1,0,0,1-1,1h-7.34a1,1,0,0,1-1-1V19.82a1,1,0,0,1,1-1h7.34A1,1,0,0,1,326.42,19.82Z"/><path class="cls-1" d="M373.16,63.67a1,1,0,0,1-1,1h-7.34a1,1,0,0,1-1-1V19.82a1,1,0,0,1,1-1h19.82c11.74,0,20.92,6.88,20.92,15.6V63.67a1.1,1.1,0,0,1-1.1,1H397.2a1,1,0,0,1-1.1-1V34.41c0-2.94-4.86-6.24-11.47-6.24H374.26a1.06,1.06,0,0,0-1.1,1.1Z"/><path class="cls-1" d="M438.25,49.09V34.41c0-8.72,9.18-15.6,20.83-15.6H478.9a1.1,1.1,0,0,1,1.1,1v11c0,8.72-9.18,15.6-20.92,15.6h-5.69a1,1,0,0,1-1.1-1V38.08a1,1,0,0,1,1.1-1h5.69c6.61,0,11.47-3.3,11.47-6.24V29.27a1,1,0,0,0-1-1.1H459.08c-6.51,0-11.47,3.3-11.47,6.24V49.09c0,2.94,5,6.24,11.47,6.24H478.9a1.1,1.1,0,0,1,1.1,1v7.34a1.1,1.1,0,0,1-1.1,1H459.08C447.43,64.68,438.25,57.8,438.25,49.09Z"/><path class="cls-1" d="M32.2,150.22v7.34a1,1,0,0,1-1,1H1a1,1,0,0,1-1-1v-7.34a1,1,0,0,1,1-1H31.2A1,1,0,0,1,32.2,150.22Z"/><path class="cls-1" d="M163.76,141.41v19.82c0,2.94,5,6.24,11.47,6.24h8.35a1,1,0,0,1,1,1v7.34a1,1,0,0,1-1,1h-8.35c-11.65,0-20.83-6.88-20.83-15.6V141.41a1.1,1.1,0,0,0-1-1.1h-9.45a1,1,0,0,1-1-1v-7.25a1,1,0,0,1,1-1.1h9.45a1,1,0,0,0,1-1v-16.7a1,1,0,0,1,1-1h7.34a1,1,0,0,1,1,1v16.7a1,1,0,0,0,1.1,1h18.72a1,1,0,0,1,1,1.1v7.25a1,1,0,0,1-1,1H164.86A1.12,1.12,0,0,0,163.76,141.41Z"/><path class="cls-1" d="M337.07,146.09v15.6c0,8.81-9.18,15.69-20.83,15.69h-.09c-11.65,0-20.83-6.88-20.83-15.69v-15.6c0-8.81,9.17-15.69,20.83-15.69h.09C327.89,130.4,337.07,137.28,337.07,146.09Zm-9.36,15.6v-15.6c0-2.94-5-6.33-11.47-6.33h-.09c-6.51,0-11.47,3.4-11.47,6.33v15.6c0,3,5,6.33,11.47,6.33h.09C322.75,168,327.71,164.72,327.71,161.69Z"/><path class="cls-1" d="M480,150.22v7.34a1,1,0,0,1-1,1H448.8a1,1,0,0,1-1-1v-7.34a1,1,0,0,1,1-1H479A1,1,0,0,1,480,150.22Z"/><path class="cls-1" d="M56.34,258.7V288a1,1,0,0,1-1.1,1H48a1,1,0,0,1-1.1-1V258.7c0-2.94-4.86-6.24-11.47-6.24h-25a1.06,1.06,0,0,0-1.1,1.1V288a1,1,0,0,1-1,1H1a1,1,0,0,1-1-1V244.11a1,1,0,0,1,1-1H35.42C47.16,243.1,56.34,250,56.34,258.7Zm-23.49-.46V288a1,1,0,0,1-1,1H24.5a1,1,0,0,1-1-1V258.24a1,1,0,0,1,1-1.1h7.34A1,1,0,0,1,32.85,258.24Z"/><path class="cls-1" d="M130.78,258.79v14.59c0,8.72-9.18,15.6-20.83,15.6H90a1,1,0,0,1-1-1V277c0-8.72,9.17-15.6,20.92-15.6h5.69a1,1,0,0,1,1.1,1v7.34a1,1,0,0,1-1.1,1H110c-6.61,0-11.56,3.3-11.56,6.24v1.56a1.12,1.12,0,0,0,1.1,1.1H110c6.51,0,11.47-3.3,11.47-6.24V258.79c0-3-5-6.33-11.47-6.33H90a1,1,0,0,1-1-1v-7.34a1,1,0,0,1,1-1H110C121.61,243.1,130.78,250,130.78,258.79Z"/><path class="cls-1" d="M205.23,244.11v7.34a1.1,1.1,0,0,1-1.1,1H184.31c-6.51,0-11.47,3.3-11.47,6.24v14.68c0,2.94,5,6.24,11.47,6.24h19.82a1.1,1.1,0,0,1,1.1,1V288a1.1,1.1,0,0,1-1.1,1H184.31c-11.65,0-20.83-6.88-20.83-15.6V258.7c0-8.72,9.18-15.6,20.83-15.6h19.82A1.1,1.1,0,0,1,205.23,244.11Z"/><path class="cls-1" d="M279.68,258.7V288a1.1,1.1,0,0,1-1.1,1h-7.25a1,1,0,0,1-1.1-1V258.7c0-2.94-4.86-6.24-11.47-6.24H248.39a1.06,1.06,0,0,0-1.1,1.1V288a1,1,0,0,1-1,1h-7.34a1,1,0,0,1-1-1V225.39a1.1,1.1,0,0,1,1-1.1h7.34a1.1,1.1,0,0,1,1,1.1v16.7a1,1,0,0,0,1.1,1h10.37C270.51,243.1,279.68,250,279.68,258.7Z"/><path class="cls-1" d="M326.42,225.3v7.34a1,1,0,0,1-1,1h-7.34a1,1,0,0,1-1-1V225.3a1,1,0,0,1,1-1h7.34A1,1,0,0,1,326.42,225.3Zm0,18.81V288a1,1,0,0,1-1,1h-7.34a1,1,0,0,1-1-1V244.11a1,1,0,0,1,1-1h7.34A1,1,0,0,1,326.42,244.11Z"/><path class="cls-1" d="M373.16,288a1,1,0,0,1-1,1h-7.34a1,1,0,0,1-1-1V244.11a1,1,0,0,1,1-1h19.82c11.74,0,20.92,6.88,20.92,15.6V288a1.1,1.1,0,0,1-1.1,1H397.2a1,1,0,0,1-1.1-1V258.7c0-2.94-4.86-6.24-11.47-6.24H374.26a1.06,1.06,0,0,0-1.1,1.1Z"/><path class="cls-1" d="M438.25,273.38V258.7c0-8.72,9.18-15.6,20.83-15.6H478.9a1.1,1.1,0,0,1,1.1,1v11c0,8.72-9.18,15.6-20.92,15.6h-5.69a1,1,0,0,1-1.1-1v-7.34a1,1,0,0,1,1.1-1h5.69c6.61,0,11.47-3.3,11.47-6.24v-1.56a1,1,0,0,0-1-1.1H459.08c-6.51,0-11.47,3.3-11.47,6.24v14.68c0,2.94,5,6.24,11.47,6.24H478.9a1.1,1.1,0,0,1,1.1,1V288a1.1,1.1,0,0,1-1.1,1H459.08C447.43,289,438.25,282.09,438.25,273.38Z"/></g></g></svg>