<svg xmlns="http://www.w3.org/2000/svg" viewBox="0 0 480 177.38"><defs><style>.cls-1{fill:#fff;}</style></defs><title>str_2</title><g id="レイヤー_2" data-name="レイヤー 2"><g id="レイヤー_1-2" data-name="レイヤー 1"><path class="cls-1" d="M0,19.91a1.1,1.1,0,0,1,1-1.1H8.35a1.1,1.1,0,0,1,1,1.1V49.09c0,2.94,5,6.24,11.47,6.24H31.29a1,1,0,0,0,1-1.1V19.91a1.1,1.1,0,0,1,1-1.1h7.34a1.1,1.1,0,0,1,1,1.1V63.68a1,1,0,0,1-1,1H20.83C9.18,64.68,0,57.8,0,49.09Z"/><path class="cls-1" d="M95.51,34.41V49.09c0,8.72-9.18,15.6-20.92,15.6H54.77a1,1,0,0,1-1-1V1.1a1.1,1.1,0,0,1,1-1.1h7.34a1.1,1.1,0,0,1,1,1.1V54.22a1.06,1.06,0,0,0,1.1,1.1H74.59c6.61,0,11.47-3.3,11.47-6.24V34.41c0-2.94-4.86-6.24-11.47-6.24H68.9a1.1,1.1,0,0,1-1.1-1V19.82a1.1,1.1,0,0,1,1.1-1h5.69C86.33,18.81,95.51,25.69,95.51,34.41Z"/><path class="cls-1" d="M121.65,1V8.35a1,1,0,0,1-1,1H113.3a1,1,0,0,1-1-1V1a1,1,0,0,1,1-1h7.34A1,1,0,0,1,121.65,1Zm0,18.81V63.68a1,1,0,0,1-1,1H113.3a1,1,0,0,1-1-1V19.82a1,1,0,0,1,1-1h7.34A1,1,0,0,1,121.65,19.82Z"/><path class="cls-1" d="M138.44,49.09V34.41c0-8.72,9.18-15.6,20.92-15.6h19.82a1,1,0,0,1,1,1V82.48a1,1,0,0,1-1,1h-7.34a1,1,0,0,1-1-1V29.27a1.06,1.06,0,0,0-1.1-1.1H159.36c-6.61,0-11.56,3.3-11.56,6.24V49.09c0,2.94,5,6.24,11.56,6.24H165a1,1,0,0,1,1,1v7.34a1,1,0,0,1-1,1h-5.69C147.61,64.68,138.44,57.8,138.44,49.09Z"/><path class="cls-1" d="M192.29,19.91a1.1,1.1,0,0,1,1-1.1h7.34a1.1,1.1,0,0,1,1,1.1V49.09c0,2.94,5,6.24,11.47,6.24h10.46a1,1,0,0,0,1-1.1V19.91a1.1,1.1,0,0,1,1-1.1h7.34a1.1,1.1,0,0,1,1,1.1V63.68a1,1,0,0,1-1,1H213.12c-11.65,0-20.83-6.88-20.83-15.6Z"/><path class="cls-1" d="M260.09,1V8.35a1,1,0,0,1-1,1h-7.34a1,1,0,0,1-1-1V1a1,1,0,0,1,1-1h7.34A1,1,0,0,1,260.09,1Zm0,18.81V63.68a1,1,0,0,1-1,1h-7.34a1,1,0,0,1-1-1V19.82a1,1,0,0,1,1-1h7.34A1,1,0,0,1,260.09,19.82Z"/><path class="cls-1" d="M297.7,29.27V49.09c0,2.94,5,6.24,11.47,6.24h8.35a1,1,0,0,1,1,1v7.34a1,1,0,0,1-1,1h-8.35c-11.65,0-20.83-6.88-20.83-15.6V29.27a1.1,1.1,0,0,0-1-1.1h-9.45a1,1,0,0,1-1-1V19.91a1,1,0,0,1,1-1.1h9.45a1,1,0,0,0,1-1V1.1a1,1,0,0,1,1-1h7.34a1,1,0,0,1,1,1V17.8a1,1,0,0,0,1.1,1h18.72a1,1,0,0,1,1,1.1v7.25a1,1,0,0,1-1,1H298.81A1.12,1.12,0,0,0,297.7,29.27Z"/><path class="cls-1" d="M372.39,33.95v15.6c0,8.81-9.18,15.69-20.83,15.69h-.09c-11.65,0-20.83-6.88-20.83-15.69V33.95c0-8.81,9.18-15.69,20.83-15.69h.09C363.21,18.26,372.39,25.14,372.39,33.95ZM363,49.55V33.95c0-2.94-5-6.33-11.47-6.33h-.09C345,27.62,340,31,340,33.95v15.6c0,3,5,6.33,11.47,6.33h.09C358.07,55.88,363,52.57,363,49.55Z"/><path class="cls-1" d="M384.49,19.91a1.1,1.1,0,0,1,1-1.1h7.34a1.1,1.1,0,0,1,1,1.1V49.09c0,2.94,5,6.24,11.47,6.24h10.46a1,1,0,0,0,1-1.1V19.91a1.1,1.1,0,0,1,1-1.1h7.34a1.1,1.1,0,0,1,1,1.1V63.68a1,1,0,0,1-1,1H405.32c-11.65,0-20.83-6.88-20.83-15.6Z"/><path class="cls-1" d="M480,49.09c0,8.72-9.18,15.6-20.92,15.6H439.26a1,1,0,0,1-1-1V56.34a1,1,0,0,1,1-1h19.82a16.14,16.14,0,0,0,8.07-2c.46-.37.64-.64.64-1a1.22,1.22,0,0,0-.55-.92L439,36.43a1.29,1.29,0,0,1-.73-1.1v-.92c0-8.72,9.18-15.6,20.83-15.6H478.9a1.1,1.1,0,0,1,1.1,1v7.34a1.1,1.1,0,0,1-1.1,1H459.08a16.77,16.77,0,0,0-8.16,2A1.09,1.09,0,0,0,451,32l28.26,15a1.51,1.51,0,0,1,.73,1.1Z"/><path class="cls-1" d="M9.36,175.82a1,1,0,0,1-1,1H1a1,1,0,0,1-1-1V132a1,1,0,0,1,1-1H20.83c11.74,0,20.92,6.88,20.92,15.6v29.27a1.1,1.1,0,0,1-1.1,1H33.4a1,1,0,0,1-1.1-1V146.55c0-2.94-4.86-6.24-11.47-6.24H10.46a1.06,1.06,0,0,0-1.1,1.1Z"/><path class="cls-1" d="M70.63,161.23V146.55c0-8.72,9.18-15.6,20.83-15.6h19.82a1.1,1.1,0,0,1,1.1,1v11c0,8.72-9.18,15.6-20.92,15.6H85.77a1,1,0,0,1-1.1-1v-7.34a1,1,0,0,1,1.1-1h5.69c6.61,0,11.47-3.3,11.47-6.24v-1.56a1,1,0,0,0-1-1.1H91.45c-6.51,0-11.47,3.3-11.47,6.24v14.68c0,2.94,5,6.24,11.47,6.24h19.82a1.1,1.1,0,0,1,1.1,1v7.34a1.1,1.1,0,0,1-1.1,1H91.45C79.8,176.83,70.63,169.95,70.63,161.23Z"/><path class="cls-1" d="M162.08,141.41v19.82c0,2.94,5,6.24,11.47,6.24h8.35a1,1,0,0,1,1,1v7.34a1,1,0,0,1-1,1h-8.35c-11.65,0-20.83-6.88-20.83-15.6V141.41a1.1,1.1,0,0,0-1-1.1h-9.45a1,1,0,0,1-1-1v-7.25a1,1,0,0,1,1-1.1h9.45a1,1,0,0,0,1-1v-16.7a1,1,0,0,1,1-1h7.34a1,1,0,0,1,1,1v16.7a1,1,0,0,0,1.1,1H181.9a1,1,0,0,1,1,1.1v7.25a1,1,0,0,1-1,1H163.18A1.12,1.12,0,0,0,162.08,141.41Z"/><path class="cls-1" d="M211.79,161.23V132a1,1,0,0,1,1-1h7.34a1,1,0,0,1,1,1v29.27c0,2.94,5,6.24,11.47,6.24h25a1,1,0,0,0,1-1.1V132a1,1,0,0,1,1.1-1H267a1,1,0,0,1,1.1,1v43.86a1,1,0,0,1-1.1,1H232.61C221,176.83,211.79,169.95,211.79,161.23Zm23.49.46V132a1,1,0,0,1,1-1h7.34a1,1,0,0,1,1,1v29.73a1,1,0,0,1-1,1.1h-7.34A1,1,0,0,1,235.27,161.69Z"/><path class="cls-1" d="M338.75,146.09v15.6c0,8.81-9.18,15.69-20.83,15.69h-.09c-11.65,0-20.83-6.88-20.83-15.69v-15.6c0-8.81,9.18-15.69,20.83-15.69h.09C329.57,130.4,338.75,137.29,338.75,146.09Zm-9.36,15.6v-15.6c0-2.94-5-6.33-11.47-6.33h-.09c-6.51,0-11.47,3.4-11.47,6.33v15.6c0,3,5,6.33,11.47,6.33h.09C324.44,168,329.39,164.72,329.39,161.69Z"/><path class="cls-1" d="M377,146.64v29.18a1,1,0,0,1-1,1h-7.34a1,1,0,0,1-1-1V146.64c0-8.81,9.18-15.69,20.83-15.69h19.82a1.1,1.1,0,0,1,1,1.1v7.25a1,1,0,0,1-1,1.1H388.45C381.94,140.4,377,143.71,377,146.64Z"/><path class="cls-1" d="M474.31,153.8a.34.34,0,0,0,.09.27,13.66,13.66,0,0,1,5.6,10.74v11a1.1,1.1,0,0,1-1.1,1h-7.34a1,1,0,0,1-1-1v-11c0-2.94-5-6.24-11.47-6.24H448.62a1,1,0,0,0-1,1v16.24a1.1,1.1,0,0,1-1.1,1h-7.34a1,1,0,0,1-1-1V113.06a1,1,0,0,1,1-1h7.34a1,1,0,0,1,1,1l.09,35a1,1,0,0,0,1,1h10.46c6.51,0,11.47-3.3,11.47-6.24v-11a1,1,0,0,1,1-1h7.34a1.1,1.1,0,0,1,1.1,1v11a13.66,13.66,0,0,1-5.6,10.73C474.31,153.71,474.31,153.71,474.31,153.8Z"/></g></g></svg>