<svg xmlns="http://www.w3.org/2000/svg" viewBox="0 0 480 307.78"><defs><style>.cls-1{fill:#fff;}</style></defs><title>str_0</title><g id="レイヤー_2" data-name="レイヤー 2"><g id="レイヤー_1-2" data-name="レイヤー 1"><path class="cls-1" d="M41.75,34.5V49.09c0,8.72-9.17,15.6-20.83,15.6H1a1,1,0,0,1-1-1v-11c0-8.72,9.17-15.6,20.92-15.6h5.69a1,1,0,0,1,1.1,1v7.34a1,1,0,0,1-1.1,1H20.92c-6.61,0-11.56,3.3-11.56,6.24v1.56a1.12,1.12,0,0,0,1.1,1.1H20.92c6.51,0,11.47-3.3,11.47-6.24V34.5c0-3-5-6.33-11.47-6.33H1a1,1,0,0,1-1-1V19.82a1,1,0,0,1,1-1H20.92C32.57,18.81,41.75,25.69,41.75,34.5Z"/><path class="cls-1" d="M95.09,34.41V49.09c0,8.72-9.17,15.6-20.92,15.6H54.35a1,1,0,0,1-1-1V1.1a1.1,1.1,0,0,1,1-1.1h7.34a1.1,1.1,0,0,1,1,1.1V54.22a1.06,1.06,0,0,0,1.1,1.1H74.17c6.61,0,11.47-3.3,11.47-6.24V34.41c0-2.94-4.86-6.24-11.47-6.24H68.48a1.1,1.1,0,0,1-1.1-1V19.82a1.1,1.1,0,0,1,1.1-1h5.69C85.92,18.81,95.09,25.69,95.09,34.41Z"/><path class="cls-1" d="M148.43,19.82v7.34a1.1,1.1,0,0,1-1.1,1H127.51c-6.51,0-11.47,3.3-11.47,6.24V49.09c0,2.94,5,6.24,11.47,6.24h19.82a1.1,1.1,0,0,1,1.1,1v7.34a1.1,1.1,0,0,1-1.1,1H127.51c-11.65,0-20.83-6.88-20.83-15.6V34.41c0-8.72,9.17-15.6,20.83-15.6h19.82A1.1,1.1,0,0,1,148.43,19.82Z"/><path class="cls-1" d="M180.86,18.81h5.78a1,1,0,0,1,1,1v7.34a1,1,0,0,1-1,1h-5.78c-6.51,0-11.47,3.3-11.47,6.24V49.09c0,2.94,5,6.24,11.47,6.24h10.46a1,1,0,0,0,1-1.1V1.1a1.12,1.12,0,0,1,1.1-1.1h7.25a1.18,1.18,0,0,1,1.1,1.1V63.67a1.1,1.1,0,0,1-1.1,1H180.86c-11.65,0-20.83-6.88-20.83-15.6V34.41C160,25.69,169.21,18.81,180.86,18.81Z"/><path class="cls-1" d="M213.37,49.09V34.41c0-8.72,9.17-15.6,20.83-15.6H254a1.1,1.1,0,0,1,1.1,1v11c0,8.72-9.18,15.6-20.92,15.6h-5.69a1,1,0,0,1-1.1-1V38.08a1,1,0,0,1,1.1-1h5.69c6.61,0,11.47-3.3,11.47-6.24V29.27a1,1,0,0,0-1-1.1H234.2c-6.51,0-11.47,3.3-11.47,6.24V49.09c0,2.94,5,6.24,11.47,6.24H254a1.1,1.1,0,0,1,1.1,1v7.34a1.1,1.1,0,0,1-1.1,1H234.2C222.55,64.68,213.37,57.8,213.37,49.09Z"/><path class="cls-1" d="M266.72,27.16V19.82a1,1,0,0,1,1-1h9.45a1,1,0,0,0,1-1V15.69C278.19,6.88,287.36,0,299,0h8.35a1.18,1.18,0,0,1,1.1,1.1V8.35a1.12,1.12,0,0,1-1.1,1.1H299c-6.52,0-11.47,3.3-11.47,6.24V17.8a1,1,0,0,0,1.1,1h18.72a1.1,1.1,0,0,1,1.1,1v7.34a1.1,1.1,0,0,1-1.1,1H288.65a1.06,1.06,0,0,0-1.1,1.1V63.67a1,1,0,0,1-1,1H279.2a1,1,0,0,1-1-1V29.27a1,1,0,0,0-1-1.1h-9.45A1,1,0,0,1,266.72,27.16Z"/><path class="cls-1" d="M361.81,19.82v48c0,8.81-9.17,15.69-20.92,15.69H321.07a1.1,1.1,0,0,1-1-1.1V75.14a1,1,0,0,1,1-1.1h19.82c6.61,0,11.47-3.3,11.47-6.24V29.27a1,1,0,0,0-1-1.1H340.89c-6.51,0-11.47,3.3-11.47,6.24V49.09c0,2.94,5,6.24,11.47,6.24h5.78a1,1,0,0,1,1,1v7.34a1,1,0,0,1-1,1h-5.78c-11.65,0-20.83-6.88-20.83-15.6V34.41c0-8.72,9.17-15.6,20.83-15.6h19.82A1.1,1.1,0,0,1,361.81,19.82Z"/><path class="cls-1" d="M415.15,34.41V63.67a1.1,1.1,0,0,1-1.1,1H406.8a1,1,0,0,1-1.1-1V34.41c0-2.94-4.86-6.24-11.47-6.24H383.86a1.06,1.06,0,0,0-1.1,1.1V63.67a1,1,0,0,1-1,1h-7.34a1,1,0,0,1-1-1V1.1a1.1,1.1,0,0,1,1-1.1h7.34a1.1,1.1,0,0,1,1,1.1V17.8a1,1,0,0,0,1.1,1h10.37C406,18.81,415.15,25.69,415.15,34.41Z"/><path class="cls-1" d="M440.79,1V8.35a1,1,0,0,1-1,1h-7.34a1,1,0,0,1-1-1V1a1,1,0,0,1,1-1h7.34A1,1,0,0,1,440.79,1Zm0,18.81V63.67a1,1,0,0,1-1,1h-7.34a1,1,0,0,1-1-1V19.82a1,1,0,0,1,1-1h7.34A1,1,0,0,1,440.79,19.82Z"/><path class="cls-1" d="M447.7,75.51a1.1,1.1,0,0,1,1.1-1h10.37c6.51,0,11.47-3.3,11.47-6.24v-48a1.06,1.06,0,0,1,1.1-1.1h7.16a1.06,1.06,0,0,1,1.1,1.1v48c0,8.81-9.08,15.6-20.83,15.6H448.8a1,1,0,0,1-1.1-1Zm32.3-74V8.81a1,1,0,0,1-1.1,1h-7.16a1,1,0,0,1-1.1-1V1.56a1.06,1.06,0,0,1,1.1-1.1h7.16A1.06,1.06,0,0,1,480,1.56Z"/><path class="cls-1" d="M36.15,153.8a.34.34,0,0,0,.09.27,13.66,13.66,0,0,1,5.6,10.74v11a1.1,1.1,0,0,1-1.1,1H33.4a1,1,0,0,1-1-1v-11c0-2.94-5-6.24-11.47-6.24H10.46a1,1,0,0,0-1,1v16.24a1.1,1.1,0,0,1-1.1,1H1a1,1,0,0,1-1-1V113.06a1,1,0,0,1,1-1H8.35a1,1,0,0,1,1,1l.09,35a1,1,0,0,0,1,1H20.92c6.51,0,11.47-3.3,11.47-6.24v-11a1,1,0,0,1,1-1h7.34a1.1,1.1,0,0,1,1.1,1v11a13.66,13.66,0,0,1-5.6,10.73C36.15,153.71,36.15,153.71,36.15,153.8Z"/><path class="cls-1" d="M86.53,168.48v7.34a1,1,0,0,1-1,1H75.06c-11.65,0-20.83-6.88-20.83-15.6v-48a1,1,0,0,1,1-1h7.34a1,1,0,0,1,1,1v48c0,2.94,5,6.24,11.47,6.24H85.52A1,1,0,0,1,86.53,168.48Z"/><path class="cls-1" d="M155.25,146.55v29.27a1,1,0,0,1-1.1,1H146.9a1,1,0,0,1-1.1-1V146.55c0-2.94-4.86-6.24-11.47-6.24h-25a1.06,1.06,0,0,0-1.1,1.1v34.41a1,1,0,0,1-1,1H99.93a1,1,0,0,1-1-1V132a1,1,0,0,1,1-1h34.41C146.08,131,155.25,137.83,155.25,146.55Zm-23.49-.46v29.73a1,1,0,0,1-1,1h-7.34a1,1,0,0,1-1-1V146.09a1,1,0,0,1,1-1.1h7.34A1,1,0,0,1,131.77,146.09Z"/><path class="cls-1" d="M177,175.82a1,1,0,0,1-1,1h-7.34a1,1,0,0,1-1-1V132a1,1,0,0,1,1-1h19.82c11.74,0,20.92,6.88,20.92,15.6v29.27a1.1,1.1,0,0,1-1.1,1H201a1,1,0,0,1-1.1-1V146.55c0-2.94-4.86-6.24-11.47-6.24H178.11a1.06,1.06,0,0,0-1.1,1.1Z"/><path class="cls-1" d="M263.53,146.09v15.6c0,8.81-9.17,15.69-20.83,15.69h-.09c-11.65,0-20.83-6.88-20.83-15.69v-15.6c0-8.81,9.17-15.69,20.83-15.69h.09C254.36,130.4,263.53,137.28,263.53,146.09Zm-9.36,15.6v-15.6c0-2.94-5-6.33-11.47-6.33h-.09c-6.51,0-11.47,3.39-11.47,6.33v15.6c0,3,5,6.33,11.47,6.33h.09C249.22,168,254.17,164.72,254.17,161.69Z"/><path class="cls-1" d="M296.84,176.83h-5.78a1,1,0,0,1-1-1v-7.34a1,1,0,0,1,1-1h5.78c6.51,0,11.47-3.3,11.47-6.24V146.55c0-2.94-5-6.24-11.47-6.24H286.38a1.06,1.06,0,0,0-1.1,1.1v53.21a1,1,0,0,1-1,1h-7.34a1,1,0,0,1-1-1V132a1,1,0,0,1,1-1h19.91c11.65,0,20.83,6.88,20.83,15.6v14.68C317.67,169.95,308.5,176.83,296.84,176.83Z"/><path class="cls-1" d="M330.06,161.23V146.55c0-8.72,9.17-15.6,20.92-15.6H370.8a1,1,0,0,1,1,1v62.67a1,1,0,0,1-1,1h-7.34a1,1,0,0,1-1-1V141.41a1.06,1.06,0,0,0-1.1-1.1H351c-6.6,0-11.56,3.3-11.56,6.24v14.68c0,2.94,5,6.24,11.56,6.24h5.69a1,1,0,0,1,1,1v7.34a1,1,0,0,1-1,1H351C339.24,176.83,330.06,169.95,330.06,161.23Z"/><path class="cls-1" d="M393.56,146.64v29.18a1,1,0,0,1-1,1h-7.34a1,1,0,0,1-1-1V146.64c0-8.81,9.17-15.69,20.83-15.69h19.82a1.1,1.1,0,0,1,1,1.1v7.25a1,1,0,0,1-1,1.1H405C398.52,140.4,393.56,143.71,393.56,146.64Z"/><path class="cls-1" d="M480,161.23c0,8.72-9.18,15.6-20.92,15.6H439.26a1,1,0,0,1-1-1v-7.34a1,1,0,0,1,1-1h19.82a16.14,16.14,0,0,0,8.07-2c.46-.37.64-.64.64-1a1.22,1.22,0,0,0-.55-.92l-28.26-15a1.29,1.29,0,0,1-.73-1.1v-.92c0-8.72,9.18-15.6,20.83-15.6H478.9a1.1,1.1,0,0,1,1.1,1v7.34a1.1,1.1,0,0,1-1.1,1H459.08a16.77,16.77,0,0,0-8.17,2,1.09,1.09,0,0,0,.09,1.83l28.26,15a1.51,1.51,0,0,1,.73,1.1Z"/><path class="cls-1" d="M20.83,253.56v19.82c0,2.94,5,6.24,11.47,6.24h8.35a1,1,0,0,1,1,1V288a1,1,0,0,1-1,1H32.3c-11.65,0-20.83-6.88-20.83-15.6V253.56a1.1,1.1,0,0,0-1-1.1H1a1,1,0,0,1-1-1V244.2a1,1,0,0,1,1-1.1h9.45a1,1,0,0,0,1-1v-16.7a1,1,0,0,1,1-1h7.34a1,1,0,0,1,1,1v16.7a1,1,0,0,0,1.1,1H40.65a1,1,0,0,1,1,1.1v7.25a1,1,0,0,1-1,1H21.93A1.12,1.12,0,0,0,20.83,253.56Z"/><path class="cls-1" d="M55.3,244.2a1.1,1.1,0,0,1,1-1.1h7.34a1.1,1.1,0,0,1,1,1.1v29.18c0,2.94,5,6.24,11.47,6.24H86.59a1,1,0,0,0,1-1.1V244.2a1.1,1.1,0,0,1,1-1.1h7.34a1.1,1.1,0,0,1,1,1.1V288a1,1,0,0,1-1,1H76.13c-11.65,0-20.83-6.88-20.83-15.6Z"/><path class="cls-1" d="M156.75,244.11a1.17,1.17,0,0,1-.09.55l-20.37,43.67a.91.91,0,0,1-.92.64H127.3a1.1,1.1,0,0,1-.92-.64L106,244.66c0-.18-.09-.37-.09-.55a1,1,0,0,1,1-1H115a1.13,1.13,0,0,1,1,.64l14.4,31a1.11,1.11,0,0,0,.92.64.91.91,0,0,0,.92-.64l14.5-31a1,1,0,0,1,.92-.64h8.07A1,1,0,0,1,156.75,244.11Z"/><path class="cls-1" d="M165.72,273.38V244.11a1,1,0,0,1,1-1h7.34a1,1,0,0,1,1,1v29.27c0,2.94,5,6.24,11.47,6.24h25a1,1,0,0,0,1-1.1V244.11a1,1,0,0,1,1.1-1H221a1,1,0,0,1,1.1,1V288a1,1,0,0,1-1.1,1H186.55C174.89,289,165.72,282.09,165.72,273.38Zm23.49.46V244.11a1,1,0,0,1,1-1h7.34a1,1,0,0,1,1,1v29.73a1,1,0,0,1-1,1.1h-7.34A1,1,0,0,1,189.21,273.83Z"/><path class="cls-1" d="M277.36,244.2c0,7.71-3,14.31-7.52,17.89l-20.55,15.14c-2.2,1.56-4.22,5.69-4.22,10.73a1,1,0,0,1-1,1h-7.34a1,1,0,0,1-1-1c0-7.8,3-14.4,7.62-18l20.46-15c2.29-1.65,4.22-5.69,4.22-10.73a1.1,1.1,0,0,1,1-1.1h7.34A1.1,1.1,0,0,1,277.36,244.2Zm-34,17.89c-4.59-3.58-7.62-10.18-7.62-17.89a1.1,1.1,0,0,1,1-1.1H244a1.1,1.1,0,0,1,1,1.1c0,5,2,9.08,4.22,10.73l2.57,1.93a1,1,0,0,1,.46.83,1.1,1.1,0,0,1-.46.83L245.7,263a1.31,1.31,0,0,1-.55.18,1.32,1.32,0,0,1-.64-.18ZM269.83,270c4.5,3.58,7.52,10.18,7.52,18a1,1,0,0,1-1,1H269a1,1,0,0,1-1-1c0-5-1.93-9.17-4.22-10.73l-2.57-1.93a1,1,0,0,1,0-1.65l6.15-4.59a1.33,1.33,0,0,1,.64-.18.79.79,0,0,1,.55.27Z"/><path class="cls-1" d="M332.75,292.09c0,8.81-9.18,15.69-20.83,15.69H292a1,1,0,0,1-1-1v-7.34a1,1,0,0,1,1-1h19.91c6.51,0,11.47-3.3,11.47-6.33v-2a1.06,1.06,0,0,0-1.1-1.1H311.83c-11.65,0-20.83-6.88-20.83-15.6V244.11a1,1,0,0,1,1-1h7.34a1,1,0,0,1,1,1v29.27c0,2.94,5,6.24,11.47,6.24h10.46a1.06,1.06,0,0,0,1.1-1.1V244.11a1,1,0,0,1,1-1h7.34a1,1,0,0,1,1,1Z"/><path class="cls-1" d="M388.14,280.62V288a1.1,1.1,0,0,1-1.1,1H347.4a1,1,0,0,1-1-1c0-7.8,3-14.4,7.62-18l20.46-15.14a5,5,0,0,0,.83-.64,1.37,1.37,0,0,0,.28-.64,1.06,1.06,0,0,0-1.1-1.1H347.4a1,1,0,0,1-1-1v-7.34a1,1,0,0,1,1-1H387a1.1,1.1,0,0,1,1.1,1c0,7.8-3,14.4-7.62,18L360,277.23a4.56,4.56,0,0,0-.73.64.83.83,0,0,0-.27.64,1,1,0,0,0,1,1.1H387A1.1,1.1,0,0,1,388.14,280.62Z"/><path class="cls-1" d="M434,262.37v7.34a1,1,0,0,1-1,1H402.8a1,1,0,0,1-1-1v-7.34a1,1,0,0,1,1-1H433A1,1,0,0,1,434,262.37Z"/><path class="cls-1" d="M457,280.62V289c0,5.78-3.49,10.37-7.8,10.37a1,1,0,0,1-1-1v-2.66a1,1,0,0,1,1-1c1.38,0,2.84-1.93,3-4.77.09-.55-.37-.92-.92-.92h-2.66a1,1,0,0,1-1-1v-7.34a1,1,0,0,1,1-1H456A1,1,0,0,1,457,280.62Z"/><path class="cls-1" d="M480,280.62V288a1,1,0,0,1-1,1h-7.34a1,1,0,0,1-1-1v-7.34a1,1,0,0,1,1-1H479A1,1,0,0,1,480,280.62Z"/></g></g></svg>