<svg xmlns="http://www.w3.org/2000/svg" viewBox="0 0 471.02 280.08"><defs><style>.cls-1{fill:#fff;}</style></defs><title>top</title><g id="レイヤー_2" data-name="レイヤー 2"><g id="レイヤー_1-2" data-name="レイヤー 1"><path class="cls-1" d="M40,33.09v14c0,8.36-8.8,15-20,15H1a1,1,0,0,1-1-1V50.51c0-8.36,8.8-15,20.06-15h5.46a1,1,0,0,1,1.06,1v7a1,1,0,0,1-1.06,1H20.06c-6.34,0-11.09,3.17-11.09,6V52A1.07,1.07,0,0,0,10,53.06h10c6.25,0,11-3.17,11-6v-14c0-2.9-4.75-6.07-11-6.07H1a1,1,0,0,1-1-1V19a1,1,0,0,1,1-1h19.1C31.24,18,40,24.64,40,33.09Z"/><path class="cls-1" d="M92.38,33V47.08c0,8.36-8.8,15-20.06,15h-19a1,1,0,0,1-1-1v-60a1.06,1.06,0,0,1,1-1.06h7a1.06,1.06,0,0,1,1,1.06V52a1,1,0,0,0,1.06,1.06h9.94c6.34,0,11-3.17,11-6V33c0-2.82-4.66-6-11-6H66.87a1.06,1.06,0,0,1-1.06-1V19a1.06,1.06,0,0,1,1.06-1h5.46C83.58,18,92.38,24.64,92.38,33Z"/><path class="cls-1" d="M144.73,19v7a1.06,1.06,0,0,1-1.06,1h-19c-6.25,0-11,3.17-11,6V47.08c0,2.82,4.75,6,11,6h19a1.06,1.06,0,0,1,1.06,1v7a1.06,1.06,0,0,1-1.06,1h-19c-11.18,0-20-6.6-20-15V33c0-8.36,8.8-15,20-15h19A1.06,1.06,0,0,1,144.73,19Z"/><path class="cls-1" d="M177,18h5.54a1,1,0,0,1,1,1v7a1,1,0,0,1-1,1H177c-6.25,0-11,3.17-11,6V47.08c0,2.82,4.75,6,11,6h10A1,1,0,0,0,188,52v-51A1.07,1.07,0,0,1,189.07,0h7a1.14,1.14,0,0,1,1.06,1.06v60A1.06,1.06,0,0,1,196,62H177c-11.18,0-20-6.6-20-15V33C157,24.64,165.84,18,177,18Z"/><path class="cls-1" d="M209.38,47.08V33c0-8.36,8.8-15,20-15h19a1.06,1.06,0,0,1,1.06,1V29.57c0,8.36-8.8,15-20.06,15H223.9a1,1,0,0,1-1.06-1v-7a1,1,0,0,1,1.06-1h5.46c6.34,0,11-3.17,11-6v-1.5a1,1,0,0,0-1-1.06h-10c-6.25,0-11,3.17-11,6V47.08c0,2.82,4.75,6,11,6h19a1.06,1.06,0,0,1,1.06,1v7a1.06,1.06,0,0,1-1.06,1h-19C218.18,62,209.38,55.44,209.38,47.08Z"/><path class="cls-1" d="M261.73,26V19a1,1,0,0,1,1-1h9.06a1,1,0,0,0,1-1V15c0-8.45,8.8-15,20-15h8a1.14,1.14,0,0,1,1.06,1.06V8a1.07,1.07,0,0,1-1.06,1.06h-8c-6.25,0-11,3.17-11,6v2a1,1,0,0,0,1.06,1h18a1.06,1.06,0,0,1,1.06,1v7a1.06,1.06,0,0,1-1.06,1h-18a1,1,0,0,0-1.06,1.06v33a1,1,0,0,1-1,1h-7a1,1,0,0,1-1-1v-33a1,1,0,0,0-1-1.06H262.7A1,1,0,0,1,261.73,26Z"/><path class="cls-1" d="M354.11,19V65c0,8.45-8.8,15-20.06,15H315a1.06,1.06,0,0,1-1-1.06v-7A1,1,0,0,1,315,71h19c6.33,0,11-3.17,11-6v-37a1,1,0,0,0-1-1.06H334c-6.25,0-11,3.17-11,6V47.08c0,2.82,4.75,6,11,6h5.54a1,1,0,0,1,1,1v7a1,1,0,0,1-1,1H334c-11.18,0-20-6.6-20-15V33c0-8.36,8.8-15,20-15h19A1.06,1.06,0,0,1,354.11,19Z"/><path class="cls-1" d="M406.46,33V61.07a1.06,1.06,0,0,1-1.06,1h-7a1,1,0,0,1-1.06-1V33c0-2.82-4.66-6-11-6h-9.94a1,1,0,0,0-1.06,1.06v33a1,1,0,0,1-1,1h-7a1,1,0,0,1-1-1v-60a1.06,1.06,0,0,1,1-1.06h7a1.06,1.06,0,0,1,1,1.06v16a1,1,0,0,0,1.06,1h9.94C397.66,18,406.46,24.64,406.46,33Z"/><path class="cls-1" d="M432.23,1V8a1,1,0,0,1-1,1h-7a1,1,0,0,1-1-1V1a1,1,0,0,1,1-1h7A1,1,0,0,1,432.23,1Zm0,18V61.07a1,1,0,0,1-1,1h-7a1,1,0,0,1-1-1V19a1,1,0,0,1,1-1h7A1,1,0,0,1,432.23,19Z"/><path class="cls-1" d="M440,72.42a1.06,1.06,0,0,1,1.05-1H451c6.25,0,11-3.17,11-6v-46a1,1,0,0,1,1.06-1.06H470A1,1,0,0,1,471,19.45v46c0,8.45-8.71,15-20,15H441.1a1,1,0,0,1-1.05-1ZM471,1.5v7a1,1,0,0,1-1.06,1H463.1a1,1,0,0,1-1.06-1v-7A1,1,0,0,1,463.1.44H470A1,1,0,0,1,471,1.5Z"/><path class="cls-1" d="M34.67,140a.32.32,0,0,0,.09.26,13.1,13.1,0,0,1,5.37,10.3v10.56a1.06,1.06,0,0,1-1.06,1H32a1,1,0,0,1-1-1V150.51c0-2.82-4.75-6-11-6H10a1,1,0,0,0-1,1v15.58A1.06,1.06,0,0,1,8,162H1a1,1,0,0,1-1-1V100.88a1,1,0,0,1,1-1H8a1,1,0,0,1,1,1l.09,33.62a1,1,0,0,0,1,1h10c6.25,0,11-3.17,11-6V118.92a1,1,0,0,1,1-1h7a1.06,1.06,0,0,1,1.06,1v10.56a13.1,13.1,0,0,1-5.37,10.29C34.67,139.86,34.67,139.86,34.67,140Z"/><path class="cls-1" d="M84.32,154v7a1,1,0,0,1-1,1h-10c-11.18,0-20-6.6-20-15v-46a1,1,0,0,1,1-1h7a1,1,0,0,1,1,1v46c0,2.82,4.75,6,11,6h10A1,1,0,0,1,84.32,154Z"/><path class="cls-1" d="M151.57,133v28.07a1,1,0,0,1-1.06,1h-7a1,1,0,0,1-1.06-1V133c0-2.82-4.66-6-11-6H107.57a1,1,0,0,0-1.06,1.06v33a1,1,0,0,1-1,1h-7a1,1,0,0,1-1-1V119a1,1,0,0,1,1-1h33C142.77,118,151.57,124.64,151.57,133ZM129,132.56v28.51a1,1,0,0,1-1,1h-7a1,1,0,0,1-1-1V132.56a1,1,0,0,1,1-1.06h7A1,1,0,0,1,129,132.56Z"/><path class="cls-1" d="M173.76,161.07a1,1,0,0,1-1,1h-7a1,1,0,0,1-1-1V119a1,1,0,0,1,1-1h19c11.26,0,20.06,6.6,20.06,15v28.07a1.06,1.06,0,0,1-1.06,1h-7a1,1,0,0,1-1.06-1V133c0-2.82-4.66-6-11-6h-9.94a1,1,0,0,0-1.06,1.06Z"/><path class="cls-1" d="M258.08,132.56v15c0,8.45-8.8,15-20,15H238c-11.18,0-20-6.6-20-15v-15c0-8.45,8.8-15,20-15h.09C249.28,117.51,258.08,124.11,258.08,132.56Zm-9,15v-15c0-2.82-4.75-6.07-11-6.07H238c-6.25,0-11,3.26-11,6.07v15c0,2.9,4.75,6.07,11,6.07h.09C244.36,153.59,249.11,150.42,249.11,147.52Z"/><path class="cls-1" d="M291.37,162h-5.54a1,1,0,0,1-1-1v-7a1,1,0,0,1,1-1h5.54c6.25,0,11-3.17,11-6V133c0-2.82-4.75-6-11-6h-10a1,1,0,0,0-1.06,1.06v51a1,1,0,0,1-1,1h-7a1,1,0,0,1-1-1V119a1,1,0,0,1,1-1h19.1c11.18,0,20,6.6,20,15v14.08C311.34,155.44,302.54,162,291.37,162Z"/><path class="cls-1" d="M324.56,147.08V133c0-8.36,8.8-15,20.06-15h19a1,1,0,0,1,1,1v60.1a1,1,0,0,1-1,1h-7a1,1,0,0,1-1-1v-51a1,1,0,0,0-1.06-1.06h-9.94c-6.34,0-11.09,3.17-11.09,6v14.08c0,2.82,4.75,6,11.09,6h5.46a1,1,0,0,1,1,1v7a1,1,0,0,1-1,1h-5.46C333.36,162,324.56,155.44,324.56,147.08Z"/><path class="cls-1" d="M386.79,133.09v28a1,1,0,0,1-1,1h-7a1,1,0,0,1-1-1v-28c0-8.45,8.8-15,20-15h19a1.06,1.06,0,0,1,1,1.06v7a1,1,0,0,1-1,1.06h-19C391.54,127.1,386.79,130.27,386.79,133.09Z"/><path class="cls-1" d="M471,147.08c0,8.36-8.8,15-20.06,15H432a1,1,0,0,1-1-1v-7a1,1,0,0,1,1-1h19a15.47,15.47,0,0,0,7.74-1.94c.44-.35.62-.62.62-1a1.17,1.17,0,0,0-.53-.88l-27.1-14.34a1.24,1.24,0,0,1-.7-1.06V133c0-8.36,8.8-15,20-15h19a1.06,1.06,0,0,1,1.06,1v7a1.06,1.06,0,0,1-1.06,1H451a16.08,16.08,0,0,0-7.83,1.94,1,1,0,0,0,.09,1.76l27.1,14.34a1.45,1.45,0,0,1,.7,1.06Z"/><path class="cls-1" d="M20,228.07v19c0,2.82,4.75,6,11,6h8a1,1,0,0,1,1,1v7a1,1,0,0,1-1,1H31c-11.18,0-20-6.6-20-15v-19A1.06,1.06,0,0,0,10,227H1a1,1,0,0,1-1-1v-7A1,1,0,0,1,1,218H10a1,1,0,0,0,1-1v-16a1,1,0,0,1,1-1h7a1,1,0,0,1,1,1v16A1,1,0,0,0,21,218H39a1,1,0,0,1,1,1.06v7a1,1,0,0,1-1,1H21A1.07,1.07,0,0,0,20,228.07Z"/><path class="cls-1" d="M54.22,219.1a1.06,1.06,0,0,1,1-1.06h7a1.06,1.06,0,0,1,1,1.06v28c0,2.82,4.75,6,11,6h10a1,1,0,0,0,1-1.06V219.1a1.06,1.06,0,0,1,1-1.06h7a1.06,1.06,0,0,1,1,1.06v42a1,1,0,0,1-1,1h-19c-11.18,0-20-6.6-20-15Z"/><path class="cls-1" d="M152.71,219a1.11,1.11,0,0,1-.09.53l-19.54,41.89a.87.87,0,0,1-.88.62h-7.74a1.06,1.06,0,0,1-.88-.62L104,219.54c0-.18-.09-.35-.09-.53a1,1,0,0,1,1-1h7.74a1.08,1.08,0,0,1,1,.62l13.82,29.74a1.06,1.06,0,0,0,.88.62.88.88,0,0,0,.88-.62l13.9-29.74A1,1,0,0,1,144,218h7.74A1,1,0,0,1,152.71,219Z"/><path class="cls-1" d="M162.49,247.08V219a1,1,0,0,1,1-1h7a1,1,0,0,1,1,1v28.07c0,2.82,4.75,6,11,6h24a1,1,0,0,0,1-1.06V219a1,1,0,0,1,1.06-1h7a1,1,0,0,1,1.06,1v42.06a1,1,0,0,1-1.06,1h-33C171.29,262,162.49,255.44,162.49,247.08Zm22.53.44V219a1,1,0,0,1,1-1h7a1,1,0,0,1,1,1v28.51a1,1,0,0,1-1,1.06h-7A1,1,0,0,1,185,247.52Z"/><path class="cls-1" d="M270.75,219.1c0,7.39-2.9,13.73-7.22,17.16l-19.71,14.52c-2.11,1.5-4,5.46-4,10.3a1,1,0,0,1-1,1h-7a1,1,0,0,1-1-1c0-7.48,2.9-13.82,7.3-17.25l19.62-14.43c2.2-1.58,4-5.46,4-10.29a1.06,1.06,0,0,1,1-1.06h7A1.06,1.06,0,0,1,270.75,219.1ZM238.1,236.25c-4.4-3.43-7.3-9.77-7.3-17.16a1.06,1.06,0,0,1,1-1.06h7a1.06,1.06,0,0,1,1,1.06c0,4.84,1.94,8.71,4,10.29l2.46,1.85a.92.92,0,0,1,.44.79,1.05,1.05,0,0,1-.44.79l-5.9,4.31a1.25,1.25,0,0,1-.53.18,1.27,1.27,0,0,1-.62-.18Zm25.43,7.57c4.31,3.43,7.22,9.77,7.22,17.25a1,1,0,0,1-1,1h-7a1,1,0,0,1-1-1c0-4.84-1.85-8.8-4-10.3l-2.46-1.85a.93.93,0,0,1,0-1.58l5.9-4.4a1.28,1.28,0,0,1,.62-.18.76.76,0,0,1,.53.26Z"/><path class="cls-1" d="M325.06,265c0,8.45-8.8,15-20,15H286a1,1,0,0,1-1-1v-7a1,1,0,0,1,1-1h19.1c6.25,0,11-3.17,11-6.07v-1.94A1,1,0,0,0,315,262H305c-11.18,0-20-6.6-20-15V219a1,1,0,0,1,1-1h7a1,1,0,0,1,1,1v28.07c0,2.82,4.75,6,11,6h10a1,1,0,0,0,1.06-1.06V219a1,1,0,0,1,1-1h7a1,1,0,0,1,1,1Z"/><path class="cls-1" d="M379.37,254v7a1.06,1.06,0,0,1-1.06,1h-38a1,1,0,0,1-1-1c0-7.48,2.9-13.82,7.3-17.25l19.62-14.52a4.88,4.88,0,0,0,.79-.62,1.32,1.32,0,0,0,.26-.62,1,1,0,0,0-1.06-1.06h-26a1,1,0,0,1-1-1v-7a1,1,0,0,1,1-1h38a1.06,1.06,0,0,1,1.06,1c0,7.48-2.9,13.82-7.3,17.25l-19.71,14.52a4.36,4.36,0,0,0-.7.62.8.8,0,0,0-.26.62,1,1,0,0,0,1,1.06h26A1.06,1.06,0,0,1,379.37,254Z"/><path class="cls-1" d="M424.53,236.52v7a1,1,0,0,1-1,1h-29a1,1,0,0,1-1-1v-7a1,1,0,0,1,1-1h29A1,1,0,0,1,424.53,236.52Z"/><path class="cls-1" d="M447.78,254v8c0,5.54-3.34,9.94-7.48,9.94a1,1,0,0,1-1-1v-2.55a1,1,0,0,1,1-1c1.32,0,2.73-1.85,2.9-4.58.09-.53-.35-.88-.88-.88h-2.55a1,1,0,0,1-1-1v-7a1,1,0,0,1,1-1h7A1,1,0,0,1,447.78,254Z"/><path class="cls-1" d="M471,254v7a1,1,0,0,1-1,1h-7a1,1,0,0,1-1-1v-7a1,1,0,0,1,1-1h7A1,1,0,0,1,471,254Z"/></g></g></svg>